<?xml version="1.0" encoding="UTF-8" standalone="no"?>
<!DOCTYPE svg PUBLIC "-//W3C//DTD SVG 1.1//EN" "http://www.w3.org/Graphics/SVG/1.1/DTD/svg11.dtd">
<!-- 由 Microsoft Visio, SVG Export 生成 搭建高匿代理.svg Page-2 -->
<svg xmlns="http://www.w3.org/2000/svg" xmlns:xlink="http://www.w3.org/1999/xlink" xmlns:ev="http://www.w3.org/2001/xml-events"
		xmlns:v="http://schemas.microsoft.com/visio/2003/SVGExtensions/" width="11.6929in" height="8.26772in"
		viewBox="0 0 841.89 595.276" xml:space="preserve" color-interpolation-filters="sRGB" class="st64">
	<v:documentProperties v:langID="2052" v:metric="true" v:viewMarkup="false">
		<v:userDefs>
			<v:ud v:nameU="msvSubprocessMaster" v:prompt="" v:val="VT4(Rectangle)"/>
			<v:ud v:nameU="msvNoAutoConnect" v:val="VT0(1):26"/>
		</v:userDefs>
	</v:documentProperties>

	<style type="text/css">
	<![CDATA[
		.st1 {fill:none;stroke:#c7c8c8;stroke-width:0.25}
		.st2 {fill:#ff00ff;fill-opacity:0;stroke:#c7c8c8;stroke-opacity:0;stroke-width:0.72}
		.st3 {fill:url(#grad0-10)}
		.st4 {stroke:#ffffff;stroke-width:0.36}
		.st5 {fill:url(#grad11-15)}
		.st6 {fill:url(#grad12-22);stroke:#ffffff;stroke-width:0.36}
		.st7 {stroke:#c8c8c8;stroke-width:1}
		.st8 {fill:url(#grad12-31);stroke:#000000;stroke-width:0.36}
		.st9 {stroke:#000000;stroke-width:0.6}
		.st10 {fill:#156082;stroke:#000000;stroke-width:0.36}
		.st11 {fill:url(#grad8-47);stroke:#ffffff;stroke-width:0.12}
		.st12 {fill:url(#grad10-52);stroke:none;stroke-width:0.12}
		.st13 {fill:#156082;stroke:none;stroke-width:0.24}
		.st14 {stroke:#000000;stroke-width:0.36}
		.st15 {fill:url(#grad7-71)}
		.st16 {stroke:#000000;stroke-width:0.72;visibility:hidden}
		.st17 {fill:#00ff00;fill-opacity:0.7}
		.st18 {fill:#156082;visibility:hidden}
		.st19 {fill:url(#grad0-127)}
		.st20 {stroke:#e7e4cd;stroke-width:0.36}
		.st21 {fill:url(#grad12-154);stroke:#ffffff;stroke-width:0.72}
		.st22 {fill:url(#grad0-160);stroke:#ffffff;stroke-width:0.72}
		.st23 {fill:url(#grad11-182);stroke:#000000;stroke-width:0.72}
		.st24 {fill:#ffffff;stroke:none;stroke-width:0.24}
		.st25 {fill:#969696;stroke:none;stroke-width:0.24}
		.st26 {fill:#808080;stroke:#808080;stroke-width:0.36}
		.st27 {fill:url(#grad11-182)}
		.st28 {stroke:#000000;stroke-width:0.72}
		.st29 {stroke:#ffffff;stroke-width:0.72}
		.st30 {fill:none;stroke:#c8c8c8;stroke-width:1.5}
		.st31 {fill:#000000;stroke:#000000;stroke-width:0.12}
		.st32 {fill:#156082;fill-opacity:0.6;stroke:#000000;stroke-width:0.24}
		.st33 {fill:url(#grad3-228);stroke:#000000;stroke-width:0.12}
		.st34 {fill:url(#grad10-232);stroke:#000000;stroke-width:0.72}
		.st35 {fill:#ffffff;stroke:none;stroke-linecap:butt;stroke-width:0.75}
		.st36 {fill:url(#grad10-243);stroke:none;stroke-linecap:butt;stroke-width:0.75}
		.st37 {fill:url(#grad0-251);stroke:none;stroke-linecap:butt;stroke-width:0.75}
		.st38 {fill:url(#grad6-255);stroke:none;stroke-linecap:butt;stroke-width:0.75}
		.st39 {stroke:#ffffff;stroke-linecap:butt;stroke-width:0.5}
		.st40 {stroke:#19a94e;stroke-linecap:butt;stroke-width:0.5}
		.st41 {fill:none;stroke:none;stroke-linecap:butt;stroke-width:0.75}
		.st42 {fill:url(#grad1-268);stroke:none;stroke-linecap:butt;stroke-width:0.75}
		.st43 {fill:url(#grad1-272);stroke:none;stroke-linecap:butt;stroke-width:0.75}
		.st44 {fill:url(#grad6-279);stroke:none;stroke-linecap:butt;stroke-width:0.75}
		.st45 {fill:url(#grad0-283);stroke:none;stroke-linecap:butt;stroke-width:0.75}
		.st46 {fill:url(#grad0-287);stroke:none;stroke-linecap:butt;stroke-width:0.75}
		.st47 {fill:url(#grad10-294);stroke:none;stroke-linecap:butt;stroke-width:0.75}
		.st48 {fill:#0f3953;stroke:none;stroke-linecap:butt;stroke-width:0.75}
		.st49 {fill:none;stroke:#c8c8c8;stroke-width:0.25}
		.st50 {fill:url(#grad11-308);stroke:#c7c8c8;stroke-opacity:0;stroke-width:0.72}
		.st51 {fill:url(#grad12-314)}
		.st52 {fill:url(#grad0-321)}
		.st53 {fill:url(#grad11-326)}
		.st54 {stroke:#e7e4cd;stroke-width:0.72}
		.st55 {stroke:#c8c8c8;stroke-width:1.5}
		.st56 {fill:#115371;stroke:#0c445d;stroke-width:0.75}
		.st57 {fill:#feffff;font-family:Calibri;font-size:1.00001em;font-weight:bold}
		.st58 {fill:#156082;stroke:#ffffff;stroke-width:0.25}
		.st59 {fill:#ffffff;font-family:Microsoft YaHei;font-size:1.99999em;font-weight:bold}
		.st60 {fill:#ff0000;stroke:#ffffff;stroke-width:0.25}
		.st61 {fill:#ffffff;font-family:Calibri;font-size:1.99999em;font-weight:bold}
		.st62 {font-family:Microsoft YaHei;font-size:1em}
		.st63 {font-size:1em}
		.st64 {fill:none;fill-rule:evenodd;font-size:12px;overflow:visible;stroke-linecap:square;stroke-miterlimit:3}
	]]>
	</style>

	<defs id="Patterns_And_Gradients">
		<linearGradient id="grad0-10" x1="0" y1="0" x2="1" y2="0" gradientTransform="rotate(270 0.5 0.5)">
			<stop offset="0" stop-color="#80d6f7" stop-opacity="1"/>
			<stop offset="1" stop-color="#9fe0f9" stop-opacity="1"/>
		</linearGradient>
		<pattern id="grad11-15" x="0" y="0" width="1" height="1" patternContentUnits="objectBoundingBox">
			<path d="M 0 1 L 0 0 L 1 0 z" style="fill:url(#grad0-16)"/>
			<path d="M 0 1 L 1 1 L 1 0 z" style="fill:url(#grad0-17)"/>
		</pattern>
		<linearGradient id="grad0-16" x1="0" y1="0" x2="1" y2="0" gradientTransform="rotate(180 0.5 0.5)">
			<stop offset="0" stop-color="#61cbf4" stop-opacity="1"/>
			<stop offset="1" stop-color="#80d6f7" stop-opacity="1"/>
		</linearGradient>
		<linearGradient id="grad0-17" x1="0" y1="0" x2="1" y2="0" gradientTransform="rotate(90 0.5 0.5)">
			<stop offset="0" stop-color="#61cbf4" stop-opacity="1"/>
			<stop offset="1" stop-color="#80d6f7" stop-opacity="1"/>
		</linearGradient>
		<pattern id="grad12-22" x="0" y="0" width="1" height="1" patternContentUnits="objectBoundingBox">
			<path d="M 0 0 L 0 1 L 1 1 z" style="fill:url(#grad0-23)"/>
			<path d="M 0 0 L 1 0 L 1 1 z" style="fill:url(#grad0-24)"/>
		</pattern>
		<linearGradient id="grad0-23" x1="0" y1="0" x2="1" y2="0" gradientTransform="rotate(90 0.5 0.5)">
			<stop offset="0" stop-color="#38bef1" stop-opacity="1"/>
			<stop offset="1" stop-color="#10b1ef" stop-opacity="1"/>
		</linearGradient>
		<linearGradient id="grad0-24" x1="0" y1="0" x2="1" y2="0" gradientTransform="rotate(360 0.5 0.5)">
			<stop offset="0" stop-color="#38bef1" stop-opacity="1"/>
			<stop offset="1" stop-color="#10b1ef" stop-opacity="1"/>
		</linearGradient>
		<pattern id="grad12-31" x="0" y="0" width="1" height="1" patternContentUnits="objectBoundingBox">
			<path d="M 0 0 L 0 1 L 1 1 z" style="fill:url(#grad0-32)"/>
			<path d="M 0 0 L 1 0 L 1 1 z" style="fill:url(#grad0-33)"/>
		</pattern>
		<linearGradient id="grad0-32" x1="0" y1="0" x2="1" y2="0" gradientTransform="rotate(90 0.5 0.5)">
			<stop offset="0" stop-color="#ffffff" stop-opacity="1"/>
			<stop offset="1" stop-color="#339966" stop-opacity="1"/>
		</linearGradient>
		<linearGradient id="grad0-33" x1="0" y1="0" x2="1" y2="0" gradientTransform="rotate(360 0.5 0.5)">
			<stop offset="0" stop-color="#ffffff" stop-opacity="1"/>
			<stop offset="1" stop-color="#339966" stop-opacity="1"/>
		</linearGradient>
		<linearGradient id="grad0-37" x1="0" y1="0" x2="1" y2="0" gradientTransform="rotate(270 0.5 0.5)">
			<stop offset="0" stop-color="#ffffff" stop-opacity="1"/>
			<stop offset="1" stop-color="#e7e4cd" stop-opacity="1"/>
		</linearGradient>
		<pattern id="grad8-47" x="0" y="0" width="1" height="1" patternContentUnits="objectBoundingBox">
			<path d="M 0 0 L 1 0 L 1 1 z" style="fill:url(#grad0-37)"/>
			<path d="M 0 0 L 0 1 L 1 1 z" style="fill:url(#grad0-48)"/>
		</pattern>
		<linearGradient id="grad0-48" x1="0" y1="0" x2="1" y2="0" gradientTransform="rotate(180 0.5 0.5)">
			<stop offset="0" stop-color="#ffffff" stop-opacity="1"/>
			<stop offset="1" stop-color="#e7e4cd" stop-opacity="1"/>
		</linearGradient>
		<pattern id="grad10-52" x="0" y="0" width="1" height="1" patternContentUnits="objectBoundingBox">
			<path d="M 0.5 0.5 L 0 0 L 0 1 z" style="fill:url(#grad0-53)"/>
			<path d="M 0.5 0.5 L 1 0 L 1 1 z" style="fill:url(#grad0-54)"/>
			<path d="M 0.5 0.5 L 0 0 L 1 0 z" style="fill:url(#grad0-55)"/>
			<path d="M 0.5 0.5 L 0 1 L 1 1 z" style="fill:url(#grad0-56)"/>
		</pattern>
		<linearGradient id="grad0-53" x1="0" y1="0" x2="1" y2="0" gradientTransform="rotate(180 0.5 0.5)">
			<stop offset="0" stop-color="#000000" stop-opacity="0.4"/>
			<stop offset="1" stop-color="#e7e4cd" stop-opacity="0.4"/>
		</linearGradient>
		<linearGradient id="grad0-54" x1="0" y1="0" x2="1" y2="0" gradientTransform="rotate(360 0.5 0.5)">
			<stop offset="0" stop-color="#000000" stop-opacity="0.4"/>
			<stop offset="1" stop-color="#e7e4cd" stop-opacity="0.4"/>
		</linearGradient>
		<linearGradient id="grad0-55" x1="0" y1="0" x2="1" y2="0" gradientTransform="rotate(270 0.5 0.5)">
			<stop offset="0" stop-color="#000000" stop-opacity="0.4"/>
			<stop offset="1" stop-color="#e7e4cd" stop-opacity="0.4"/>
		</linearGradient>
		<linearGradient id="grad0-56" x1="0" y1="0" x2="1" y2="0" gradientTransform="rotate(90 0.5 0.5)">
			<stop offset="0" stop-color="#000000" stop-opacity="0.4"/>
			<stop offset="1" stop-color="#e7e4cd" stop-opacity="0.4"/>
		</linearGradient>
		<radialGradient id="grad7-71" cx="0" cy="0" r="1.4">
			<stop offset="0" stop-color="#ffffff" stop-opacity="1"/>
			<stop offset="1" stop-color="#0000ff" stop-opacity="1"/>
		</radialGradient>
		<linearGradient id="grad0-127" x1="0" y1="0" x2="1" y2="0" gradientTransform="rotate(180 0.5 0.5)">
			<stop offset="0.01" stop-color="#ff6600" stop-opacity="1"/>
			<stop offset="0.5" stop-color="#e7e4cd" stop-opacity="1"/>
			<stop offset="1" stop-color="#ff6600" stop-opacity="1"/>
		</linearGradient>
		<pattern id="grad12-154" x="0" y="0" width="1" height="1" patternContentUnits="objectBoundingBox">
			<path d="M 0 0 L 0 1 L 1 1 z" style="fill:url(#grad0-155)"/>
			<path d="M 0 0 L 1 0 L 1 1 z" style="fill:url(#grad0-156)"/>
		</pattern>
		<linearGradient id="grad0-155" x1="0" y1="0" x2="1" y2="0" gradientTransform="rotate(90 0.5 0.5)">
			<stop offset="0" stop-color="#114e68" stop-opacity="1"/>
			<stop offset="1" stop-color="#3e3e3e" stop-opacity="1"/>
		</linearGradient>
		<linearGradient id="grad0-156" x1="0" y1="0" x2="1" y2="0" gradientTransform="rotate(360 0.5 0.5)">
			<stop offset="0" stop-color="#114e68" stop-opacity="1"/>
			<stop offset="1" stop-color="#3e3e3e" stop-opacity="1"/>
		</linearGradient>
		<linearGradient id="grad0-160" x1="0" y1="0" x2="1" y2="0" gradientTransform="rotate(270 0.5 0.5)">
			<stop offset="0" stop-color="#1b7ca7" stop-opacity="1"/>
			<stop offset="1" stop-color="#626262" stop-opacity="1"/>
		</linearGradient>
		<pattern id="grad11-182" x="0" y="0" width="1" height="1" patternContentUnits="objectBoundingBox">
			<path d="M 0 1 L 0 0 L 1 0 z" style="fill:url(#grad0-183)"/>
			<path d="M 0 1 L 1 1 L 1 0 z" style="fill:url(#grad0-184)"/>
		</pattern>
		<linearGradient id="grad0-183" x1="0" y1="0" x2="1" y2="0" gradientTransform="rotate(180 0.5 0.5)">
			<stop offset="0" stop-color="#ffffff" stop-opacity="1"/>
			<stop offset="1" stop-color="#c0c0c0" stop-opacity="1"/>
		</linearGradient>
		<linearGradient id="grad0-184" x1="0" y1="0" x2="1" y2="0" gradientTransform="rotate(90 0.5 0.5)">
			<stop offset="0" stop-color="#ffffff" stop-opacity="1"/>
			<stop offset="1" stop-color="#c0c0c0" stop-opacity="1"/>
		</linearGradient>
		<radialGradient id="grad3-228" cx="0.5" cy="0.5" r="0.73">
			<stop offset="0" stop-color="#ffffff" stop-opacity="1"/>
			<stop offset="1" stop-color="#008000" stop-opacity="1"/>
		</radialGradient>
		<pattern id="grad10-232" x="0" y="0" width="1" height="1" patternContentUnits="objectBoundingBox">
			<path d="M 0.5 0.5 L 0 0 L 0 1 z" style="fill:url(#grad0-233)"/>
			<path d="M 0.5 0.5 L 1 0 L 1 1 z" style="fill:url(#grad0-234)"/>
			<path d="M 0.5 0.5 L 0 0 L 1 0 z" style="fill:url(#grad0-235)"/>
			<path d="M 0.5 0.5 L 0 1 L 1 1 z" style="fill:url(#grad0-236)"/>
		</pattern>
		<linearGradient id="grad0-233" x1="0" y1="0" x2="1" y2="0" gradientTransform="rotate(180 0.5 0.5)">
			<stop offset="0" stop-color="#ffffff" stop-opacity="1"/>
			<stop offset="1" stop-color="#c6d1e3" stop-opacity="1"/>
		</linearGradient>
		<linearGradient id="grad0-234" x1="0" y1="0" x2="1" y2="0" gradientTransform="rotate(360 0.5 0.5)">
			<stop offset="0" stop-color="#ffffff" stop-opacity="1"/>
			<stop offset="1" stop-color="#c6d1e3" stop-opacity="1"/>
		</linearGradient>
		<linearGradient id="grad0-235" x1="0" y1="0" x2="1" y2="0" gradientTransform="rotate(270 0.5 0.5)">
			<stop offset="0" stop-color="#ffffff" stop-opacity="1"/>
			<stop offset="1" stop-color="#c6d1e3" stop-opacity="1"/>
		</linearGradient>
		<linearGradient id="grad0-236" x1="0" y1="0" x2="1" y2="0" gradientTransform="rotate(90 0.5 0.5)">
			<stop offset="0" stop-color="#ffffff" stop-opacity="1"/>
			<stop offset="1" stop-color="#c6d1e3" stop-opacity="1"/>
		</linearGradient>
		<pattern id="grad10-243" x="0" y="0" width="1" height="1" patternContentUnits="objectBoundingBox">
			<path d="M 0.5 0.5 L 0 0 L 0 1 z" style="fill:url(#grad0-244)"/>
			<path d="M 0.5 0.5 L 1 0 L 1 1 z" style="fill:url(#grad0-245)"/>
			<path d="M 0.5 0.5 L 0 0 L 1 0 z" style="fill:url(#grad0-246)"/>
			<path d="M 0.5 0.5 L 0 1 L 1 1 z" style="fill:url(#grad0-247)"/>
		</pattern>
		<linearGradient id="grad0-244" x1="0" y1="0" x2="1" y2="0" gradientTransform="rotate(180 0.5 0.5)">
			<stop offset="0" stop-color="#ffffff" stop-opacity="1"/>
			<stop offset="1" stop-color="#2da8ea" stop-opacity="1"/>
		</linearGradient>
		<linearGradient id="grad0-245" x1="0" y1="0" x2="1" y2="0" gradientTransform="rotate(360 0.5 0.5)">
			<stop offset="0" stop-color="#ffffff" stop-opacity="1"/>
			<stop offset="1" stop-color="#2da8ea" stop-opacity="1"/>
		</linearGradient>
		<linearGradient id="grad0-246" x1="0" y1="0" x2="1" y2="0" gradientTransform="rotate(270 0.5 0.5)">
			<stop offset="0" stop-color="#ffffff" stop-opacity="1"/>
			<stop offset="1" stop-color="#2da8ea" stop-opacity="1"/>
		</linearGradient>
		<linearGradient id="grad0-247" x1="0" y1="0" x2="1" y2="0" gradientTransform="rotate(90 0.5 0.5)">
			<stop offset="0" stop-color="#ffffff" stop-opacity="1"/>
			<stop offset="1" stop-color="#2da8ea" stop-opacity="1"/>
		</linearGradient>
		<linearGradient id="grad0-251" x1="0" y1="0" x2="1" y2="0" gradientTransform="rotate(0 0.5 0.5)">
			<stop offset="0" stop-color="#bcbec0" stop-opacity="1"/>
			<stop offset="1" stop-color="#9d9fa1" stop-opacity="1"/>
		</linearGradient>
		<radialGradient id="grad6-255" cx="1" cy="0" r="1.4">
			<stop offset="0" stop-color="#0f3953" stop-opacity="1"/>
			<stop offset="1" stop-color="#145270" stop-opacity="1"/>
		</radialGradient>
		<radialGradient id="grad1-268" cx="1" cy="1" r="1.4">
			<stop offset="0" stop-color="#1a4795" stop-opacity="1"/>
			<stop offset="1" stop-color="#086bc2" stop-opacity="1"/>
		</radialGradient>
		<radialGradient id="grad1-272" cx="1" cy="1" r="1.4">
			<stop offset="0" stop-color="#1b4995" stop-opacity="1"/>
			<stop offset="1" stop-color="#27b3dd" stop-opacity="1"/>
		</radialGradient>
		<radialGradient id="grad6-279" cx="1" cy="0" r="1.4">
			<stop offset="0" stop-color="#42bc33" stop-opacity="1"/>
			<stop offset="1" stop-color="#bde1a1" stop-opacity="1"/>
		</radialGradient>
		<linearGradient id="grad0-283" x1="0" y1="0" x2="1" y2="0" gradientTransform="rotate(270 0.5 0.5)">
			<stop offset="0" stop-color="#19a94e" stop-opacity="1"/>
			<stop offset="1" stop-color="#abd782" stop-opacity="1"/>
		</linearGradient>
		<linearGradient id="grad0-287" x1="0" y1="0" x2="1" y2="0" gradientTransform="rotate(180 0.5 0.5)">
			<stop offset="0" stop-color="#42bc33" stop-opacity="1"/>
			<stop offset="1" stop-color="#bde1a1" stop-opacity="1"/>
		</linearGradient>
		<pattern id="grad10-294" x="0" y="0" width="1" height="1" patternContentUnits="objectBoundingBox">
			<path d="M 0.5 0.5 L 0 0 L 0 1 z" style="fill:url(#grad0-287)"/>
			<path d="M 0.5 0.5 L 1 0 L 1 1 z" style="fill:url(#grad0-295)"/>
			<path d="M 0.5 0.5 L 0 0 L 1 0 z" style="fill:url(#grad0-296)"/>
			<path d="M 0.5 0.5 L 0 1 L 1 1 z" style="fill:url(#grad0-297)"/>
		</pattern>
		<linearGradient id="grad0-295" x1="0" y1="0" x2="1" y2="0" gradientTransform="rotate(360 0.5 0.5)">
			<stop offset="0" stop-color="#42bc33" stop-opacity="1"/>
			<stop offset="1" stop-color="#bde1a1" stop-opacity="1"/>
		</linearGradient>
		<linearGradient id="grad0-296" x1="0" y1="0" x2="1" y2="0" gradientTransform="rotate(270 0.5 0.5)">
			<stop offset="0" stop-color="#42bc33" stop-opacity="1"/>
			<stop offset="1" stop-color="#bde1a1" stop-opacity="1"/>
		</linearGradient>
		<linearGradient id="grad0-297" x1="0" y1="0" x2="1" y2="0" gradientTransform="rotate(90 0.5 0.5)">
			<stop offset="0" stop-color="#42bc33" stop-opacity="1"/>
			<stop offset="1" stop-color="#bde1a1" stop-opacity="1"/>
		</linearGradient>
		<pattern id="grad11-308" x="0" y="0" width="1" height="1" patternContentUnits="objectBoundingBox">
			<path d="M 0 1 L 0 0 L 1 0 z" style="fill:url(#grad0-309)"/>
			<path d="M 0 1 L 1 1 L 1 0 z" style="fill:url(#grad0-310)"/>
		</pattern>
		<linearGradient id="grad0-309" x1="0" y1="0" x2="1" y2="0" gradientTransform="rotate(180 0.5 0.5)">
			<stop offset="0" stop-color="#ff00ff" stop-opacity="0"/>
			<stop offset="1" stop-color="#ff00ff" stop-opacity="0"/>
		</linearGradient>
		<linearGradient id="grad0-310" x1="0" y1="0" x2="1" y2="0" gradientTransform="rotate(90 0.5 0.5)">
			<stop offset="0" stop-color="#ff00ff" stop-opacity="0"/>
			<stop offset="1" stop-color="#ff00ff" stop-opacity="0"/>
		</linearGradient>
		<pattern id="grad12-314" x="0" y="0" width="1" height="1" patternContentUnits="objectBoundingBox">
			<path d="M 0 0 L 0 1 L 1 1 z" style="fill:url(#grad0-315)"/>
			<path d="M 0 0 L 1 0 L 1 1 z" style="fill:url(#grad0-316)"/>
		</pattern>
		<linearGradient id="grad0-315" x1="0" y1="0" x2="1" y2="0" gradientTransform="rotate(90 0.5 0.5)">
			<stop offset="0" stop-color="#e7e4cd" stop-opacity="1"/>
			<stop offset="1" stop-color="#ff6600" stop-opacity="1"/>
		</linearGradient>
		<linearGradient id="grad0-316" x1="0" y1="0" x2="1" y2="0" gradientTransform="rotate(360 0.5 0.5)">
			<stop offset="0" stop-color="#e7e4cd" stop-opacity="1"/>
			<stop offset="1" stop-color="#ff6600" stop-opacity="1"/>
		</linearGradient>
		<linearGradient id="grad0-321" x1="0" y1="0" x2="1" y2="0" gradientTransform="rotate(270 0.5 0.5)">
			<stop offset="0" stop-color="#e7e4cd" stop-opacity="1"/>
			<stop offset="1" stop-color="#ff6600" stop-opacity="1"/>
		</linearGradient>
		<pattern id="grad11-326" x="0" y="0" width="1" height="1" patternContentUnits="objectBoundingBox">
			<path d="M 0 1 L 0 0 L 1 0 z" style="fill:url(#grad0-327)"/>
			<path d="M 0 1 L 1 1 L 1 0 z" style="fill:url(#grad0-315)"/>
		</pattern>
		<linearGradient id="grad0-327" x1="0" y1="0" x2="1" y2="0" gradientTransform="rotate(180 0.5 0.5)">
			<stop offset="0" stop-color="#e7e4cd" stop-opacity="1"/>
			<stop offset="1" stop-color="#ff6600" stop-opacity="1"/>
		</linearGradient>
	</defs>
	<g v:mID="4" v:index="2" v:groupContext="foregroundPage">
		<v:userDefs>
			<v:ud v:nameU="msvThemeOrder" v:val="VT0(0):26"/>
		</v:userDefs>
		<title>页-2</title>
		<v:pageProperties v:drawingScale="0.0393701" v:pageScale="0.0393701" v:drawingUnits="24" v:shadowOffsetX="8.50394"
				v:shadowOffsetY="-8.50394"/>
		<g id="shape1-1" v:mID="1" v:groupContext="shape">
			<title>矩形</title>
			<v:userDefs>
				<v:ud v:nameU="visVersion" v:val="VT0(15):26"/>
			</v:userDefs>
			<rect x="0" y="-2.18942E-06" width="836.22" height="595.276" class="st1"/>
		</g>
		<g id="group206-3" transform="translate(31.1811,-265.551)" v:mID="206" v:groupContext="group">
			<title>工作表.206</title>
			<g id="group207-4" transform="translate(364,-49.2126)" v:mID="207" v:groupContext="group">
				<v:custProps>
					<v:cp v:nameU="Manufacturer" v:lbl="制造商" v:type="0" v:sortKey="Equipment" v:invis="false" v:langID="2052"/>
					<v:cp v:nameU="ProductNumber" v:lbl="产品编号" v:type="0" v:sortKey="Equipment" v:invis="false" v:langID="2052"/>
					<v:cp v:nameU="PartNumber" v:lbl="部件号" v:type="0" v:sortKey="Equipment" v:invis="false" v:langID="2052"/>
					<v:cp v:nameU="ProductDescription" v:lbl="产品说明" v:type="0" v:sortKey="Equipment" v:invis="false"
							v:langID="2052"/>
					<v:cp v:nameU="AssetNumber" v:lbl="资产号" v:type="0" v:sortKey="Asset" v:invis="false" v:langID="2052"/>
					<v:cp v:nameU="SerialNumber" v:lbl="序列号" v:type="0" v:sortKey="Asset" v:invis="false" v:langID="2052"/>
					<v:cp v:nameU="Location" v:lbl="位置" v:type="0" v:sortKey="Asset" v:invis="false" v:langID="2052"/>
					<v:cp v:nameU="Building" v:lbl="建筑物" v:type="0" v:sortKey="Asset" v:invis="false" v:langID="2052"/>
					<v:cp v:nameU="Room" v:lbl="房间" v:type="0" v:sortKey="Asset" v:invis="false" v:langID="2052"/>
					<v:cp v:nameU="Department" v:lbl="部门" v:langID="2052"/>
					<v:cp v:nameU="ShapeClass" v:lbl="ShapeClass" v:type="0" v:invis="true" v:ask="false" v:langID="2052"
							v:val="VT4(设备)"/>
					<v:cp v:nameU="ShapeType" v:lbl="ShapeType" v:type="0" v:invis="true" v:ask="false" v:langID="2052"
							v:val="VT4(服务器)"/>
					<v:cp v:nameU="SubShapeType" v:lbl="SubShapeType" v:type="0" v:invis="true" v:ask="false" v:langID="2052"
							v:val="VT4(Web)"/>
					<v:cp v:nameU="NetworkName" v:lbl="网络名称" v:type="0" v:sortKey="Network" v:invis="false" v:ask="false"
							v:langID="2052"/>
					<v:cp v:nameU="IPAddress" v:lbl="IP 地址" v:type="0" v:sortKey="Network" v:invis="false" v:ask="false"
							v:langID="2052"/>
					<v:cp v:nameU="SubnetMask" v:lbl="子网掩码" v:type="0" v:sortKey="Network" v:invis="false" v:ask="false"
							v:langID="2052"/>
					<v:cp v:nameU="AdminInterface" v:lbl="管理接口" v:type="0" v:sortKey="Network" v:invis="false" v:ask="false"
							v:langID="2052"/>
					<v:cp v:nameU="NumberofPorts" v:lbl="端口数目" v:type="0" v:sortKey="Network" v:invis="false" v:ask="false"
							v:langID="2052"/>
					<v:cp v:nameU="MACAddress" v:lbl="MAC 地址" v:type="0" v:sortKey="Network" v:invis="false" v:ask="false"
							v:langID="2052"/>
					<v:cp v:nameU="CommunityString" v:lbl="团体字符串" v:type="0" v:sortKey="Network" v:invis="false" v:ask="false"
							v:langID="2052"/>
					<v:cp v:nameU="NetworkDescription" v:lbl="网络说明" v:type="0" v:sortKey="Network" v:invis="false" v:ask="false"
							v:langID="2052"/>
					<v:cp v:nameU="HardDriveSize" v:lbl="硬盘容量" v:type="0" v:sortKey="Workstation" v:invis="false" v:ask="false"
							v:langID="2052"/>
					<v:cp v:nameU="CPU" v:lbl="CPU" v:type="0" v:sortKey="Workstation" v:invis="false" v:ask="false"
							v:langID="2052"/>
					<v:cp v:nameU="Memory" v:lbl="内存" v:type="0" v:sortKey="Workstation" v:invis="false" v:ask="false"
							v:langID="2052"/>
					<v:cp v:nameU="OperatingSystem" v:lbl="操作系统" v:type="0" v:sortKey="Workstation" v:invis="false" v:ask="false"
							v:langID="2052"/>
				</v:custProps>
				<v:userDefs>
					<v:ud v:nameU="HasText" v:val="VT0(0):5"/>
					<v:ud v:nameU="SolSH" v:val="VT15({BF0433D9-CD73-4EB5-8390-8653BE590246}):41"/>
					<v:ud v:nameU="ShapeClass" v:val="VT0(5):26"/>
					<v:ud v:nameU="ShapeType" v:val="VT0(24):26"/>
					<v:ud v:nameU="SubShapeType" v:val="VT0(74):26"/>
					<v:ud v:nameU="visLegendShape" v:val="VT0(2):26"/>
					<v:ud v:nameU="visVersion" v:prompt="" v:val="VT0(15):26"/>
				</v:userDefs>
				<title>Web 服务器</title>
				<g id="shape208-5" v:mID="208" v:groupContext="shape">
					<title>工作表.208</title>
					<path d="M45.94 583.53 A6.509 6.15516 -178.74 0 0 45.77 581.97 A10.0691 9.78936 -180 0 0 45.59 581.21 L51.59
								 577.98 L51.59 534.25 L31.75 523.62 L0 540.92 L0.01 585.34 A33.404 31.1949 -180 0 0 19.59 595.28
								 L28.47 590.44 A10.0691 9.78936 -180 0 0 43.71 589.97 A10.0691 9.78936 -180 0 0 44.75 588.45 A9.89789
								 9.3599 -1.36 0 0 45.94 583.53 ZM8.81 547.84 A34.4736 32.1937 -180 0 0 19.59 551.67 A34.0885 31.8342
								 0 0 1 8.81 547.84 Z" class="st2"/>
				</g>
				<g id="shape209-7" v:mID="209" v:groupContext="shape" transform="translate(0,-43.6087)">
					<title>工作表.209</title>
					<path d="M19.58 595.27 L51.59 577.86 L31.75 567.23 L0 584.53 A34.4736 32.1937 -180 0 0 19.59 595.28 L19.58 595.27
								 Z" class="st3"/>
					<path d="M19.58 595.27 L51.59 577.86 L31.75 567.23 L0 584.53 A34.4736 32.1937 -180 0 0 19.59 595.28"
							class="st4"/>
				</g>
				<g id="shape210-12" v:mID="210" v:groupContext="shape" transform="translate(0.0117226,-4.54747E-13)">
					<title>工作表.210</title>
					<path d="M19.58 551.67 A34.0885 31.8342 0 0 1 -0 540.87 L0 585.34 A33.404 31.1949 -180 0 0 19.58 595.28 L19.57
								 551.67 L19.58 551.67 Z" class="st5"/>
					<path d="M19.58 551.67 A34.0885 31.8342 0 0 1 -0 540.87 L0 585.34 A33.404 31.1949 -180 0 0 19.58 595.28 L19.57
								 551.67" class="st4"/>
				</g>
				<g id="shape211-19" v:mID="211" v:groupContext="shape" transform="translate(19.578,-0.0492874)">
					<title>工作表.211</title>
					<path d="M0 551.72 L0 595.28 L32.01 578.03 L32.01 534.3 L0 551.72 Z" class="st6"/>
				</g>
				<g id="shape212-25" v:mID="212" v:groupContext="shape" transform="translate(0,-0.00157949)">
					<title>工作表.212</title>
					<path d="M51.59 534.25 L31.75 523.62 L0 540.92 L0.01 585.34 A33.404 31.1949 -180 0 0 19.59 595.28 L51.59 577.98
								 L51.59 534.25" class="st7"/>
				</g>
				<g id="shape213-28" v:mID="213" v:groupContext="shape" transform="translate(-195.298,12.8652) rotate(-20)">
					<title>工作表.213</title>
					<ellipse cx="1.49856" cy="593.235" rx="1.49856" ry="2.04058" class="st8"/>
				</g>
				<g id="shape214-34" v:mID="214" v:groupContext="shape" transform="translate(3.1748,-6.30187)">
					<title>工作表.214</title>
					<path d="M-0 583.17 A38.2407 34.9264 -96.44 0 0 13.23 589.96" class="st9"/>
					<path d="M0 585.83 A38.2407 34.9264 -96.44 0 0 13.23 592.62" class="st9"/>
					<path d="M-0 588.48 A38.2407 34.9264 -96.44 0 0 13.23 595.28" class="st9"/>
				</g>
				<g id="group215-41" transform="translate(2.64567,-30.8854)" v:mID="215" v:groupContext="group">
					<title>工作表.215</title>
					<g id="shape216-42" v:mID="216" v:groupContext="shape" transform="translate(0,-7.14816)">
						<title>工作表.216</title>
						<path d="M0.47 588.48 A33.3648 31.1582 -180 0 0 13.7 595.28 a0.677953 0.633118 -180 0 0 1.77636E-15 -1.23535
									 A32.457 30.3105 0 0 1 0.74 587.44 a0.439213 0.410167 -180 0 0 -0.73326 0.34869 a0.957246 0.89394
									 -180 0 0 0.468693 0.689005 Z" class="st10"/>
					</g>
					<g id="shape217-44" v:mID="217" v:groupContext="shape" transform="translate(4.20704,-8.70531)">
						<title>工作表.217</title>
						<path d="M4.07 595.23 A4.95756 3.01797 -90.9 0 0 0.1 593.25 A3.26183 1.62624 -180 0 0 4.07 595.23 Z"
								class="st11"/>
					</g>
					<g id="shape218-49" v:mID="218" v:groupContext="shape" transform="translate(0.529134,-0.0617676)">
						<title>工作表.218</title>
						<path d="M0 585.02 L0 588.48 A35.8904 33.5168 -180 0 0 13.23 595.28 L13.23 591.82 A37.065 34.6138 0 0 1 0
									 585.02 Z" class="st12"/>
					</g>
					<g id="shape219-57" v:mID="219" v:groupContext="shape" transform="translate(0.529134,-1.97656)">
						<title>工作表.219</title>
						<path d="M0 588.48 A32.4849 30.3365 -180 0 0 13.23 595.28 L13.23 594.41 A35.9048 33.5303 0 0 1 0 587.62 L0
									 588.48 Z" class="st13"/>
					</g>
					<g id="shape220-59" v:mID="220" v:groupContext="shape" transform="translate(0.529134,-0.123535)">
						<title>工作表.220</title>
						<path d="M0 585.02 L0 588.48 A35.8904 33.5168 -180 0 0 13.23 595.28" class="st4"/>
					</g>
					<g id="shape221-62" v:mID="221" v:groupContext="shape" transform="translate(0.529134,1.13687E-13)">
						<title>工作表.221</title>
						<path d="M13.23 595.28 L13.23 591.82 A37.065 34.6138 0 0 1 0 585.02" class="st14"/>
					</g>
				</g>
				<g id="group222-66" transform="translate(25.811,-1.66953)" v:mID="222" v:groupContext="group">
					<v:userDefs>
						<v:ud v:nameU="IsVisable" v:val="VT0(1):5"/>
					</v:userDefs>
					<title>工作表.222</title>
					<g id="group223-67" transform="translate(0,-0.00519402)" v:mID="223" v:groupContext="group">
						<title>工作表.223</title>
						<g id="shape224-68" v:mID="224" v:groupContext="shape">
							<title>工作表.224</title>
							<ellipse cx="10.0691" cy="585.486" rx="10.0691" ry="9.78936" class="st15"/>
							<ellipse cx="10.0691" cy="585.486" rx="10.0691" ry="9.78936" class="st16"/>
						</g>
						<g id="shape225-73" v:mID="225" v:groupContext="shape" transform="translate(0.837527,-0.219628)">
							<title>工作表.225</title>
							<path d="M7.98 595.28 L9.15 592.28 A5.30842 5.02227 -3.94 0 0 11.06 589.21 A2.44283 2.3099 -180 0 0 9.19
										 587.37 A2.63473 2.49136 -180 0 0 7.3 588.45 L6.84 587.73 A1.9984 1.94289 -180 0 0 8.17 586.22
										 A3.74663 3.54276 0 0 1 6.66 585.11 L8.33 583.78 L8.76 582.01 L7.51 581.22 L8.3 580.26 L6.82
										 579.25 L7.22 578.13 L9.54 578.77 L9.45 580.62 L10.37 580.89 L11.61 580.33 L12.6 581.11 L13.8
										 583.81 L13.43 585.3 L12.59 585.84 L12.95 586.84 A1.69271 1.6006 -180 0 0 15.49 587.87 A1.94013
										 1.83456 0 0 1 16.6 589.58 L17.03 591.84 A9.89789 9.3599 -1.36 0 0 19.3 585.43 A6.509 6.15516
										 -178.74 0 0 18.19 581.85 A7.08904 6.7033 -180 0 0 16.47 579.42 A1.93228 1.82714 -180 0 0
										 15.05 580.73 L15.48 582.04 A1.28342 1.21359 0 0 1 13.93 581.97 L13.72 583.91 A15.6743 14.8214
										 -180 0 0 12.67 581.37 L13.97 580.86 L13.48 580.14 L12.6 579.94 L12.63 579.36 L13.05 577.08
										 L10.87 576.48 L9.78 577.05 L9.06 576.32 L7.79 576.2 L5.05 577.67 L6.32 578.43 L5.39 579.84
										 A1.3439 1.27077 0 0 1 6.57 581.29 a0.507039 0.479449 0 0 1 -0.708784 0.550066 a0.801394
										 0.757787 0 0 1 -1.09602 -0.81201 L5.13 579.49 L4.69 577.99 L2.74 578.29 L2.79 579.23 L2.34
										 579.64 L1.41 579.55 A7.90964 7.68992 -180 0 0 -0 581.84 L1.09 582.24 A3.77595 3.57048 0
										 0 1 1.92 584.79 A3.521 3.3294 -180 0 0 5.28 586.55 A2.51397 2.37717 0 0 1 7.01 588.74 A1.36839
										 1.29393 -180 0 0 6.76 590.41 L7.95 590.98 A1.6005 1.51341 0 0 1 7.31 592.37 A4.34291 4.1066
										 -180 0 0 7.98 595.28 Z" class="st17"/>
						</g>
					</g>
					<g id="shape226-76" v:mID="226" v:groupContext="shape" transform="translate(0.00271571,-1.13687E-13)">
						<title>工作表.226</title>
						<ellipse cx="10.0694" cy="585.488" rx="10.0694" ry="9.78787" class="st18"/>
						<ellipse cx="10.0694" cy="585.488" rx="10.0694" ry="9.78787" class="st7"/>
					</g>
				</g>
			</g>
			<g id="group227-79" transform="translate(547.433,-49.2126)" v:mID="227" v:groupContext="group">
				<v:custProps>
					<v:cp v:nameU="Manufacturer" v:lbl="制造商" v:type="0" v:sortKey="Equipment" v:invis="false" v:langID="2052"/>
					<v:cp v:nameU="ProductNumber" v:lbl="产品编号" v:type="0" v:sortKey="Equipment" v:invis="false" v:langID="2052"/>
					<v:cp v:nameU="PartNumber" v:lbl="部件号" v:type="0" v:sortKey="Equipment" v:invis="false" v:langID="2052"/>
					<v:cp v:nameU="ProductDescription" v:lbl="产品说明" v:type="0" v:sortKey="Equipment" v:invis="false"
							v:langID="2052"/>
					<v:cp v:nameU="AssetNumber" v:lbl="资产号" v:type="0" v:sortKey="Asset" v:invis="false" v:langID="2052"/>
					<v:cp v:nameU="SerialNumber" v:lbl="序列号" v:type="0" v:sortKey="Asset" v:invis="false" v:langID="2052"/>
					<v:cp v:nameU="Location" v:lbl="位置" v:type="0" v:sortKey="Asset" v:invis="false" v:langID="2052"/>
					<v:cp v:nameU="Building" v:lbl="建筑物" v:type="0" v:sortKey="Asset" v:invis="false" v:langID="2052"/>
					<v:cp v:nameU="Room" v:lbl="房间" v:type="0" v:sortKey="Asset" v:invis="false" v:langID="2052"/>
					<v:cp v:nameU="Department" v:lbl="部门" v:langID="2052"/>
					<v:cp v:nameU="ShapeClass" v:lbl="ShapeClass" v:type="0" v:invis="true" v:ask="false" v:langID="2052"
							v:val="VT4(设备)"/>
					<v:cp v:nameU="ShapeType" v:lbl="ShapeType" v:type="0" v:invis="true" v:ask="false" v:langID="2052"
							v:val="VT4(服务器)"/>
					<v:cp v:nameU="SubShapeType" v:lbl="SubShapeType" v:type="0" v:invis="true" v:ask="false" v:langID="2052"
							v:val="VT4(代理)"/>
					<v:cp v:nameU="NetworkName" v:lbl="网络名称" v:type="0" v:sortKey="Network" v:invis="false" v:ask="false"
							v:langID="2052"/>
					<v:cp v:nameU="IPAddress" v:lbl="IP 地址" v:type="0" v:sortKey="Network" v:invis="false" v:ask="false"
							v:langID="2052"/>
					<v:cp v:nameU="SubnetMask" v:lbl="子网掩码" v:type="0" v:sortKey="Network" v:invis="false" v:ask="false"
							v:langID="2052"/>
					<v:cp v:nameU="AdminInterface" v:lbl="管理接口" v:type="0" v:sortKey="Network" v:invis="false" v:ask="false"
							v:langID="2052"/>
					<v:cp v:nameU="NumberofPorts" v:lbl="端口数目" v:type="0" v:sortKey="Network" v:invis="false" v:ask="false"
							v:langID="2052"/>
					<v:cp v:nameU="MACAddress" v:lbl="MAC 地址" v:type="0" v:sortKey="Network" v:invis="false" v:ask="false"
							v:langID="2052"/>
					<v:cp v:nameU="CommunityString" v:lbl="团体字符串" v:type="0" v:sortKey="Network" v:invis="false" v:ask="false"
							v:langID="2052"/>
					<v:cp v:nameU="NetworkDescription" v:lbl="网络说明" v:type="0" v:sortKey="Network" v:invis="false" v:ask="false"
							v:langID="2052"/>
					<v:cp v:nameU="HardDriveSize" v:lbl="硬盘容量" v:type="0" v:sortKey="Workstation" v:invis="false" v:ask="false"
							v:langID="2052"/>
					<v:cp v:nameU="CPU" v:lbl="CPU" v:type="0" v:sortKey="Workstation" v:invis="false" v:ask="false"
							v:langID="2052"/>
					<v:cp v:nameU="Memory" v:lbl="内存" v:type="0" v:sortKey="Workstation" v:invis="false" v:ask="false"
							v:langID="2052"/>
					<v:cp v:nameU="OperatingSystem" v:lbl="操作系统" v:type="0" v:sortKey="Workstation" v:invis="false" v:ask="false"
							v:langID="2052"/>
				</v:custProps>
				<v:userDefs>
					<v:ud v:nameU="HasText" v:val="VT0(0):5"/>
					<v:ud v:nameU="SolSH" v:val="VT15({BF0433D9-CD73-4EB5-8390-8653BE590246}):41"/>
					<v:ud v:nameU="ShapeClass" v:val="VT0(5):26"/>
					<v:ud v:nameU="ShapeType" v:val="VT0(24):26"/>
					<v:ud v:nameU="SubShapeType" v:val="VT0(56):26"/>
					<v:ud v:nameU="visLegendShape" v:val="VT0(2):26"/>
					<v:ud v:nameU="visVersion" v:prompt="" v:val="VT0(15):26"/>
				</v:userDefs>
				<title>代理服务器</title>
				<g id="shape228-80" v:mID="228" v:groupContext="shape" transform="translate(0,5.31496)">
					<title>工作表.228</title>
					<path d="M42.28 577.62 L51.59 572.61 L51.59 528.87 L31.75 518.25 L0 535.54 L0.01 579.97 A33.404 31.1949 -180
								 0 0 19.59 589.9 L23.95 587.5 L23.95 587.59 L37.99 595.28 L42.38 592.85 L42.38 577.68 L42.28 577.62
								 ZM8.81 542.46 A34.4736 32.1937 -180 0 0 19.59 546.29 A34.0885 31.8342 0 0 1 8.81 542.46 Z"
							class="st2"/>
				</g>
				<g id="shape229-82" v:mID="229" v:groupContext="shape" transform="translate(0,-43.6087)">
					<title>工作表.229</title>
					<path d="M19.58 595.27 L51.59 577.86 L31.75 567.23 L0 584.53 A34.4736 32.1937 -180 0 0 19.59 595.28 L19.58 595.27
								 Z" class="st3"/>
					<path d="M19.58 595.27 L51.59 577.86 L31.75 567.23 L0 584.53 A34.4736 32.1937 -180 0 0 19.59 595.28"
							class="st4"/>
				</g>
				<g id="shape230-86" v:mID="230" v:groupContext="shape" transform="translate(0.0117226,-4.54747E-13)">
					<title>工作表.230</title>
					<path d="M19.58 551.67 A34.0885 31.8342 0 0 1 -0 540.87 L0 585.34 A33.404 31.1949 -180 0 0 19.58 595.28 L19.57
								 551.67 L19.58 551.67 Z" class="st5"/>
					<path d="M19.58 551.67 A34.0885 31.8342 0 0 1 -0 540.87 L0 585.34 A33.404 31.1949 -180 0 0 19.58 595.28 L19.57
								 551.67" class="st4"/>
				</g>
				<g id="shape231-90" v:mID="231" v:groupContext="shape" transform="translate(19.578,-0.0492874)">
					<title>工作表.231</title>
					<path d="M0 551.72 L0 595.28 L32.01 578.03 L32.01 534.3 L0 551.72 Z" class="st6"/>
				</g>
				<g id="shape232-93" v:mID="232" v:groupContext="shape" transform="translate(0,-0.00157949)">
					<title>工作表.232</title>
					<path d="M51.59 534.25 L31.75 523.62 L0 540.92 L0.01 585.34 A33.404 31.1949 -180 0 0 19.59 595.28 L51.59 577.98
								 L51.59 534.25" class="st7"/>
				</g>
				<g id="shape233-96" v:mID="233" v:groupContext="shape" transform="translate(-195.298,12.8652) rotate(-20)">
					<title>工作表.233</title>
					<ellipse cx="1.49856" cy="593.235" rx="1.49856" ry="2.04058" class="st8"/>
				</g>
				<g id="shape234-99" v:mID="234" v:groupContext="shape" transform="translate(3.1748,-6.30187)">
					<title>工作表.234</title>
					<path d="M-0 583.17 A38.2407 34.9264 -96.44 0 0 13.23 589.96" class="st9"/>
					<path d="M0 585.83 A38.2407 34.9264 -96.44 0 0 13.23 592.62" class="st9"/>
					<path d="M-0 588.48 A38.2407 34.9264 -96.44 0 0 13.23 595.28" class="st9"/>
				</g>
				<g id="group235-105" transform="translate(2.64567,-30.8854)" v:mID="235" v:groupContext="group">
					<title>工作表.235</title>
					<g id="shape236-106" v:mID="236" v:groupContext="shape" transform="translate(0,-7.14816)">
						<title>工作表.236</title>
						<path d="M0.47 588.48 A33.3648 31.1582 -180 0 0 13.7 595.28 a0.677953 0.633118 -180 0 0 1.77636E-15 -1.23535
									 A32.457 30.3105 0 0 1 0.74 587.44 a0.439213 0.410167 -180 0 0 -0.73326 0.34869 a0.957246 0.89394
									 -180 0 0 0.468693 0.689005 Z" class="st10"/>
					</g>
					<g id="shape237-108" v:mID="237" v:groupContext="shape" transform="translate(4.20704,-8.70531)">
						<title>工作表.237</title>
						<path d="M4.07 595.23 A4.95756 3.01797 -90.9 0 0 0.1 593.25 A3.26183 1.62624 -180 0 0 4.07 595.23 Z"
								class="st11"/>
					</g>
					<g id="shape238-111" v:mID="238" v:groupContext="shape" transform="translate(0.529134,-0.0617676)">
						<title>工作表.238</title>
						<path d="M0 585.02 L0 588.48 A35.8904 33.5168 -180 0 0 13.23 595.28 L13.23 591.82 A37.065 34.6138 0 0 1 0
									 585.02 Z" class="st12"/>
					</g>
					<g id="shape239-114" v:mID="239" v:groupContext="shape" transform="translate(0.529134,-1.97656)">
						<title>工作表.239</title>
						<path d="M0 588.48 A32.4849 30.3365 -180 0 0 13.23 595.28 L13.23 594.41 A35.9048 33.5303 0 0 1 0 587.62 L0
									 588.48 Z" class="st13"/>
					</g>
					<g id="shape240-116" v:mID="240" v:groupContext="shape" transform="translate(0.529134,-0.123535)">
						<title>工作表.240</title>
						<path d="M0 585.02 L0 588.48 A35.8904 33.5168 -180 0 0 13.23 595.28" class="st4"/>
					</g>
					<g id="shape241-119" v:mID="241" v:groupContext="shape" transform="translate(0.529134,1.13687E-13)">
						<title>工作表.241</title>
						<path d="M13.23 595.28 L13.23 591.82 A37.065 34.6138 0 0 1 0 585.02" class="st14"/>
					</g>
				</g>
				<g id="group242-123" transform="translate(23.9528,5.37402)" v:mID="242" v:groupContext="group">
					<v:userDefs>
						<v:ud v:nameU="IsVisable" v:val="VT0(1):5"/>
					</v:userDefs>
					<title>工作表.242</title>
					<g id="shape243-124" v:mID="243" v:groupContext="shape">
						<title>工作表.243</title>
						<path d="M0 587.59 L14.03 595.28 L18.43 592.85 L18.43 577.68 L4.71 570.2 L0 572.83 L0 587.59 Z"
								class="st19"/>
					</g>
					<g id="shape244-129" v:mID="244" v:groupContext="shape" transform="translate(1.07123,-1.05169)">
						<title>工作表.244</title>
						<path d="M0 574.48 L12.96 581.56 L16.28 579.74" class="st20"/>
						<path d="M12.96 581.56 L12.96 595.28" class="st20"/>
						<path d="M0 576.71 L12.96 583.79" class="st20"/>
						<path d="M0 579.09 L12.96 586.16" class="st20"/>
						<path d="M0 581.46 L12.96 588.54" class="st20"/>
						<path d="M0 583.84 L12.96 590.92" class="st20"/>
						<path d="M0 586.21 L12.96 593.29" class="st20"/>
						<path d="M6.64 590.06 L6.64 591.68" class="st20"/>
						<path d="M1.93 587.43 L1.93 589.05" class="st20"/>
						<path d="M4.28 586.42 L4.28 588.04" class="st20"/>
						<path d="M6.64 585.41 L6.64 587.02" class="st20"/>
						<path d="M1.93 582.78 L1.93 584.39" class="st20"/>
						<path d="M4.28 581.77 L4.28 583.38" class="st20"/>
						<path d="M1.93 578.12 L1.93 579.74" class="st20"/>
					</g>
					<g id="shape245-145" v:mID="245" v:groupContext="shape">
						<title>工作表.245</title>
						<path d="M0 587.59 L14.03 595.28 L18.43 592.85 L18.43 577.68 L4.71 570.2 L0 572.83 L0 587.59" class="st7"/>
					</g>
				</g>
			</g>
			<g id="group246-148" transform="translate(-2.39808E-14,-49.2126)" v:mID="246" v:groupContext="group">
				<v:custProps>
					<v:cp v:nameU="Manufacturer" v:lbl="制造商" v:type="0" v:sortKey="Equipment" v:invis="false" v:ask="false"
							v:langID="2052"/>
					<v:cp v:nameU="ProductNumber" v:lbl="产品编号" v:type="0" v:sortKey="Equipment" v:invis="false" v:ask="false"
							v:langID="2052"/>
					<v:cp v:nameU="PartNumber" v:lbl="部件号" v:type="0" v:sortKey="Equipment" v:invis="false" v:ask="false"
							v:langID="2052"/>
					<v:cp v:nameU="ProductDescription" v:lbl="产品说明" v:type="0" v:sortKey="Equipment" v:invis="false" v:ask="false"
							v:langID="2052"/>
					<v:cp v:nameU="AssetNumber" v:lbl="资产号" v:type="0" v:sortKey="Asset" v:invis="false" v:ask="false"
							v:langID="2052"/>
					<v:cp v:nameU="SerialNumber" v:lbl="序列号" v:type="0" v:sortKey="Asset" v:invis="false" v:ask="false"
							v:langID="2052"/>
					<v:cp v:nameU="Location" v:lbl="位置" v:type="0" v:sortKey="Asset" v:invis="false" v:ask="false" v:langID="2052"/>
					<v:cp v:nameU="Building" v:lbl="建筑物" v:type="0" v:sortKey="Asset" v:invis="false" v:ask="false" v:langID="2052"/>
					<v:cp v:nameU="Room" v:lbl="房间" v:type="0" v:sortKey="Asset" v:invis="false" v:ask="false" v:langID="2052"/>
					<v:cp v:nameU="Department" v:lbl="部门" v:type="0" v:invis="false" v:ask="false" v:langID="2052"/>
					<v:cp v:nameU="NetworkName" v:lbl="网络名称" v:type="0" v:sortKey="Network" v:invis="false" v:ask="false"
							v:langID="2052"/>
					<v:cp v:nameU="IPAddress" v:lbl="IP 地址" v:type="0" v:sortKey="Network" v:invis="false" v:ask="false"
							v:langID="2052"/>
					<v:cp v:nameU="SubnetMask" v:lbl="子网掩码" v:type="0" v:sortKey="Network" v:invis="false" v:ask="false"
							v:langID="2052"/>
					<v:cp v:nameU="AdminInterface" v:lbl="管理接口" v:type="0" v:sortKey="Network" v:invis="false" v:ask="false"
							v:langID="2052"/>
					<v:cp v:nameU="NumberofPorts" v:lbl="端口数目" v:type="0" v:sortKey="Network" v:invis="false" v:ask="false"
							v:langID="2052"/>
					<v:cp v:nameU="CommunityString" v:lbl="团体字符串" v:type="0" v:sortKey="Network" v:invis="false" v:ask="false"
							v:langID="2052"/>
					<v:cp v:nameU="NetworkDescription" v:lbl="网络说明" v:type="0" v:sortKey="Network" v:invis="false" v:ask="false"
							v:langID="2052"/>
					<v:cp v:nameU="CPU" v:lbl="CPU" v:type="0" v:sortKey="Workstation" v:invis="false" v:ask="false"
							v:langID="2052"/>
					<v:cp v:nameU="Memory" v:lbl="内存" v:type="0" v:sortKey="Workstation" v:invis="false" v:ask="false"
							v:langID="2052"/>
					<v:cp v:nameU="OperatingSystem" v:lbl="操作系统" v:type="0" v:sortKey="Workstation" v:invis="false" v:ask="false"
							v:langID="2052"/>
					<v:cp v:nameU="BelongsTo" v:lbl="属于" v:type="0" v:invis="true" v:ask="false" v:langID="2052"/>
					<v:cp v:nameU="ShapeClass" v:lbl="ShapeClass" v:type="0" v:invis="true" v:ask="false" v:langID="2052"
							v:val="VT4(设备)"/>
					<v:cp v:nameU="ShapeType" v:lbl="ShapeType" v:type="0" v:invis="true" v:ask="false" v:langID="2052"
							v:val="VT4(计算机)"/>
					<v:cp v:nameU="SubShapeType" v:lbl="SubShapeType" v:type="0" v:invis="true" v:ask="false" v:langID="2052"
							v:val="VT4(桌面)"/>
					<v:cp v:nameU="MACAddress" v:lbl="MAC 地址" v:type="0" v:sortKey="Network" v:invis="false" v:ask="false"
							v:langID="2052"/>
					<v:cp v:nameU="HardDriveSize" v:lbl="硬盘容量" v:type="0" v:sortKey="Workstation" v:invis="false" v:ask="false"
							v:langID="2052"/>
				</v:custProps>
				<v:userDefs>
					<v:ud v:nameU="HasText" v:val="VT0(0):5"/>
					<v:ud v:nameU="ShapeClass" v:val="VT0(5):26"/>
					<v:ud v:nameU="ShapeType" v:val="VT0(6):26"/>
					<v:ud v:nameU="SubShapeType" v:val="VT0(17):26"/>
					<v:ud v:nameU="SolSH" v:val="VT15({BF0433D9-CD73-4EB5-8390-8653BE590246}):41"/>
					<v:ud v:nameU="visLegendShape" v:val="VT0(2):26"/>
					<v:ud v:nameU="visVersion" v:prompt="" v:val="VT0(15):26"/>
				</v:userDefs>
				<title>PC.6</title>
				<g id="shape247-149" v:mID="247" v:groupContext="shape">
					<title>工作表.247</title>
					<path d="M63.31 550.23 L63.31 534.83 L45.68 524.56 L37.57 526.89 L32 523.62 L25.51 526.19 L25.51 550.55 L19.36
								 554.2 L19.36 565.4 A62.3486 62.7548 -180 0 0 46.38 581.04 L71.65 566.33 L71.65 555.13 L63.31 550.23
								 ZM0 576.14 L0 579.4 L27.36 595.28 L40.12 587.81 L40.12 583.61 L12.29 567.5 L0 576.14 Z"
							class="st2"/>
				</g>
				<g id="shape248-151" v:mID="248" v:groupContext="shape" transform="translate(27.3628,-1.13687E-13)">
					<title>工作表.248</title>
					<path d="M0 595.28 L0 592.04 L12.75 583.61 L12.75 587.81 L0 595.28 Z" class="st21"/>
				</g>
				<g id="shape249-157" v:mID="249" v:groupContext="shape" transform="translate(3.51719E-13,-3.23787)">
					<title>工作表.249</title>
					<path d="M0 579.37 L12.29 570.74 L40.12 586.84 L27.36 595.28 L0 579.37 Z" class="st22"/>
				</g>
				<g id="shape250-161" v:mID="250" v:groupContext="shape" transform="translate(19.3627,-25.4566)">
					<title>工作表.250</title>
					<path d="M27.02 595.28 L52.29 580.59 L25.16 564.72 L0 579.65 A63.7572 64.1725 -180 0 0 27.02 595.28 Z"
							class="st22"/>
				</g>
				<g id="shape251-164" v:mID="251" v:groupContext="shape" transform="translate(48.2328,-29.8751)">
					<title>工作表.251</title>
					<path d="M0 595.28 L0 569.13 L5.31 566.03 L5.1 590.84 L0 595.28 Z" class="st21"/>
				</g>
				<g id="shape252-167" v:mID="252" v:groupContext="shape" transform="translate(53.3344,-36.8771)">
					<title>工作表.252</title>
					<path d="M0.19 575.47 L9.97 571.7 L9.97 587.11 L0 595.28 L0.19 575.47 Z" class="st21"/>
				</g>
				<g id="shape253-170" v:mID="253" v:groupContext="shape" transform="translate(37.5659,-56.6792)">
					<title>工作表.253</title>
					<path d="M15.96 595.28 L15.98 592.83 L0 583.57 L8.12 581.23 L25.74 591.5 L15.96 595.28 Z" class="st22"/>
				</g>
				<g id="shape254-173" v:mID="254" v:groupContext="shape" transform="translate(46.3777,-14.2373)">
					<title>工作表.254</title>
					<path d="M0 584.06 L25.28 569.37 L25.28 580.57 L0 595.28 L0 584.06 Z" class="st21"/>
				</g>
				<g id="shape255-176" v:mID="255" v:groupContext="shape" transform="translate(25.5077,-56.0158)">
					<title>工作表.255</title>
					<path d="M0 582.21 L6.49 579.64 L12.07 582.91 L28.04 592.18 L22.73 595.28 A63.6332 64.0477 0 0 1 -0 582.21 Z"
							class="st22"/>
				</g>
				<g id="shape256-179" v:mID="256" v:groupContext="shape">
					<title>工作表.256</title>
					<path d="M0 576.14 L27.36 592.04 L27.36 595.28 L0 579.4 L0 576.14 Z" class="st23"/>
				</g>
				<g id="group257-185" transform="translate(2.97991,-4.90205)" v:mID="257" v:groupContext="group">
					<title>工作表.257</title>
					<g id="shape258-186" v:mID="258" v:groupContext="shape" transform="translate(0,-0.477752)">
						<title>工作表.258</title>
						<path d="M0 580.61 L2.01 581.81 L3.68 580.71 L1.67 579.51 L0 580.61 ZM2.48 578.94 L4.49 580.13 L6.16 579.03
									 L4.16 577.84 L2.48 578.94 ZM4.97 577.27 L6.97 578.46 L8.65 577.36 L6.64 576.17 L4.97 577.27
									 ZM7.45 575.59 L9.46 576.79 L11.13 575.69 L9.12 574.5 L7.45 575.59 ZM11.18 577.84 L13.18 579.03
									 L14.86 577.93 L12.85 576.74 L11.18 577.84 ZM14.9 580.08 L16.91 581.28 L18.58 580.18 L16.58 578.99
									 L14.9 580.08 ZM18.63 582.33 L20.64 583.52 L22.31 582.43 L20.3 581.23 L18.63 582.33 ZM26.08 586.82
									 L28.09 588.01 L29.76 586.92 L27.75 585.72 L26.08 586.82 ZM29.81 589.07 L31.81 590.26 L33.49
									 589.16 L31.48 587.97 L29.81 589.07 ZM27.32 590.74 L29.33 591.93 L31 590.83 L29 589.64 L27.32
									 590.74 ZM23.6 588.49 L25.6 589.69 L27.28 588.59 L25.27 587.39 L23.6 588.49 ZM22.36 584.57 L24.36
									 585.77 L26.03 584.67 L24.03 583.48 L22.36 584.57 ZM19.87 586.25 L21.88 587.44 L23.55 586.34
									 L21.54 585.15 L19.87 586.25 ZM16.15 584 L18.15 585.2 L19.82 584.1 L17.82 582.9 L16.15 584 ZM12.42
									 581.76 L14.43 582.95 L16.1 581.85 L14.09 580.66 L12.42 581.76 ZM8.69 579.51 L10.7 580.71 L12.37
									 579.61 L10.37 578.41 L8.69 579.51 ZM6.21 581.18 L8.22 582.38 L9.89 581.28 L7.88 580.09 L6.21
									 581.18 ZM9.94 583.43 L11.94 584.62 L13.61 583.52 L11.61 582.33 L9.94 583.43 ZM13.66 585.67 L15.67
									 586.87 L17.34 585.77 L15.33 584.58 L13.66 585.67 ZM17.39 587.92 L19.39 589.11 L21.07 588.01
									 L19.06 586.82 L17.39 587.92 ZM21.11 590.16 L23.12 591.36 L24.79 590.26 L22.79 589.07 L21.11
									 590.16 ZM24.84 592.41 L26.85 593.6 L28.52 592.5 L26.51 591.31 L24.84 592.41 ZM22.36 594.08 L24.36
									 595.28 L26.03 594.18 L24.03 592.98 L22.36 594.08 ZM18.63 591.84 L20.64 593.03 L22.31 591.93
									 L20.3 590.74 L18.63 591.84 ZM7.45 585.1 L16.91 590.79 L18.58 589.69 L9.12 584 L7.45 585.1 ZM3.73
									 582.86 L5.73 584.05 L7.4 582.95 L5.4 581.76 L3.73 582.86 Z" class="st24"/>
					</g>
					<g id="shape259-188" v:mID="259" v:groupContext="shape" transform="translate(0.000788062,1.13687E-13)">
						<title>工作表.259</title>
						<path d="M7.45 575.59 L9.46 576.79 L9.46 576.31 L7.45 575.12 L7.45 575.59 ZM11.18 577.84 L13.18 579.03 L13.18
									 578.56 L11.18 577.36 L11.18 577.84 ZM14.9 580.08 L16.91 581.28 L16.91 580.8 L14.9 579.61 L14.9
									 580.08 ZM18.63 582.33 L20.64 583.52 L20.64 583.05 L18.63 581.85 L18.63 582.33 ZM22.36 584.57
									 L24.36 585.77 L24.36 585.29 L22.36 584.1 L22.36 584.57 ZM26.08 586.82 L28.09 588.01 L28.09 587.54
									 L26.08 586.34 L26.08 586.82 ZM9.46 576.31 L9.46 576.79 L11.13 575.69 L11.13 575.21 L9.46 576.31
									 ZM13.18 578.55 L13.18 579.03 L14.86 577.93 L14.86 577.46 L13.18 578.55 ZM16.91 580.8 L16.91
									 581.28 L18.58 580.18 L18.58 579.7 L16.91 580.8 ZM20.64 583.05 L20.64 583.52 L22.31 582.42 L22.31
									 581.95 L20.64 583.05 ZM24.36 585.29 L24.36 585.77 L26.03 584.67 L26.03 584.19 L24.36 585.29
									 ZM28.09 587.54 L28.09 588.01 L29.76 586.91 L29.76 586.44 L28.09 587.54 ZM29.81 589.06 L31.81
									 590.26 L31.81 589.78 L29.81 588.59 L29.81 589.06 ZM31.81 589.78 L31.81 590.26 L33.49 589.16
									 L33.49 588.68 L31.81 589.78 ZM4.97 577.27 L6.97 578.46 L6.97 577.98 L4.97 576.79 L4.97 577.27
									 ZM8.69 579.51 L10.7 580.71 L10.7 580.23 L8.69 579.03 L8.69 579.51 ZM12.42 581.76 L14.43 582.95
									 L14.43 582.47 L12.42 581.28 L12.42 581.76 ZM16.15 584 L18.15 585.2 L18.15 584.72 L16.15 583.52
									 L16.15 584 ZM19.87 586.25 L21.88 587.44 L21.88 586.96 L19.87 585.77 L19.87 586.25 ZM23.6 588.49
									 L25.6 589.69 L25.6 589.21 L23.6 588.01 L23.6 588.49 ZM6.97 577.98 L6.97 578.46 L8.65 577.36
									 L8.65 576.88 L6.97 577.98 ZM10.7 580.23 L10.7 580.7 L12.37 579.61 L12.37 579.13 L10.7 580.23
									 ZM14.43 582.47 L14.43 582.95 L16.1 581.85 L16.1 581.37 L14.43 582.47 ZM18.15 584.72 L18.15 585.2
									 L19.82 584.1 L19.82 583.62 L18.15 584.72 ZM21.88 586.96 L21.88 587.44 L23.55 586.34 L23.55 585.86
									 L21.88 586.96 ZM25.6 589.21 L25.6 589.69 L27.28 588.59 L27.28 588.11 L25.6 589.21 ZM27.32 590.74
									 L29.33 591.93 L29.33 591.45 L27.32 590.26 L27.32 590.74 ZM29.33 591.45 L29.33 591.93 L31 590.83
									 L31 590.35 L29.33 591.45 ZM2.48 578.94 L4.49 580.13 L4.49 579.65 L2.48 578.46 L2.48 578.94 ZM6.21
									 581.18 L8.22 582.38 L8.22 581.9 L6.21 580.71 L6.21 581.18 ZM9.94 583.43 L11.94 584.62 L11.94
									 584.15 L9.94 582.95 L9.94 583.43 ZM13.66 585.67 L15.67 586.87 L15.67 586.39 L13.66 585.2 L13.66
									 585.67 ZM17.39 587.92 L19.39 589.11 L19.39 588.64 L17.39 587.44 L17.39 587.92 ZM21.11 590.16
									 L23.12 591.36 L23.12 590.88 L21.11 589.69 L21.11 590.16 ZM4.49 579.65 L4.49 580.13 L6.16 579.03
									 L6.16 578.56 L4.49 579.65 ZM8.22 581.9 L8.22 582.38 L9.89 581.28 L9.89 580.8 L8.22 581.9 ZM11.94
									 584.14 L11.94 584.62 L13.61 583.52 L13.61 583.05 L11.94 584.14 ZM15.67 586.39 L15.67 586.87
									 L17.34 585.77 L17.34 585.29 L15.67 586.39 ZM19.39 588.63 L19.39 589.11 L21.07 588.01 L21.07
									 587.54 L19.39 588.63 ZM23.12 590.88 L23.12 591.36 L24.79 590.26 L24.79 589.78 L23.12 590.88
									 ZM24.84 592.41 L26.85 593.6 L26.85 593.13 L24.84 591.93 L24.84 592.41 ZM26.85 593.13 L26.85
									 593.6 L28.52 592.5 L28.52 592.03 L26.85 593.13 ZM0 580.61 L2.01 581.8 L2.01 581.33 L0 580.13
									 L0 580.61 ZM3.73 582.86 L5.73 584.05 L5.73 583.57 L3.73 582.38 L3.73 582.86 ZM7.45 585.1 L16.91
									 590.79 L16.91 590.31 L7.45 584.62 L7.45 585.1 ZM18.63 591.84 L20.64 593.03 L20.64 592.55 L18.63
									 591.36 L18.63 591.84 ZM2.01 581.33 L2.01 581.8 L3.68 580.71 L3.68 580.23 L2.01 581.33 ZM5.73
									 583.57 L5.73 584.05 L7.4 582.95 L7.4 582.47 L5.73 583.57 ZM16.91 590.31 L16.91 590.78 L18.58
									 589.69 L18.58 589.21 L16.91 590.31 ZM20.64 592.55 L20.64 593.03 L22.31 591.93 L22.31 591.45
									 L20.64 592.55 ZM22.35 594.08 L24.36 595.28 L24.36 594.8 L22.35 593.6 L22.35 594.08 ZM24.36 594.8
									 L24.36 595.28 L26.03 594.18 L26.03 593.7 L24.36 594.8 Z" class="st25"/>
					</g>
				</g>
				<g id="shape260-190" v:mID="260" v:groupContext="shape" transform="translate(65.7507,-28.8131)">
					<title>工作表.260</title>
					<path d="M1.73 588.38 L3.18 587.47 L3.18 593.43 L1.73 594.34 L1.73 588.38 ZM0 589.31 L0.8 588.85 L0.8 594.81
								 L0 595.28 L0 589.31 Z" class="st26"/>
				</g>
				<g id="shape261-192" v:mID="261" v:groupContext="shape" transform="translate(19.3627,-14.2373)">
					<title>工作表.261</title>
					<path d="M28.87 579.64 A51.6604 51.9969 0 0 1 6.15 566.8 L6.15 540.43 A62.6106 63.0184 -180 0 0 28.87 553.5 L28.87
								 579.64 ZM0 579.64 A62.3486 62.7548 -180 0 0 27.02 595.28 L27.02 584.06 A62.7408 63.1496 0 0 1 0
								 568.43 L0 579.64 Z" class="st27"/>
					<path d="M28.87 579.64 A51.6604 51.9969 0 0 1 6.15 566.8 L6.15 540.43 A62.6106 63.0184 -180 0 0 28.87 553.5 L28.87
								 579.64" class="st28"/>
					<path d="M1.97 573.1 A37.085 36.845 -90 0 0 8 578" class="st28"/>
					<path d="M1.97 574.74 A37.085 36.845 -90 0 0 8 579.64" class="st28"/>
					<path d="M1.97 576.37 A37.085 36.845 -90 0 0 8 581.27" class="st28"/>
					<path d="M1.97 578 A37.085 36.845 -90 0 0 8 582.91" class="st28"/>
					<path d="M23.77 543.1 L34.44 549.3" class="st28"/>
					<path d="M25.16 542.71 L35.83 548.91" class="st28"/>
					<path d="M26.55 542.32 L37.22 548.52" class="st28"/>
					<path d="M27.94 541.93 L38.61 548.13" class="st28"/>
					<path d="M0 579.64 A62.3486 62.7548 -180 0 0 27.02 595.28 L27.02 584.06 A62.7408 63.1496 0 0 1 0 568.43 L0 579.64"
							class="st28"/>
				</g>
				<g id="shape262-205" v:mID="262" v:groupContext="shape" transform="translate(28.2904,-34.5845)">
					<title>工作表.262</title>
					<path d="M0 566.61 L0 585.51 A53.426 53.0802 -90.11 0 0 16.46 595.28" class="st29"/>
				</g>
				<g id="shape263-209" v:mID="263" v:groupContext="shape">
					<title>工作表.263</title>
					<path d="M46.38 581.04 L71.65 566.33 L71.65 555.13 L63.31 550.23 L63.31 534.83 L45.68 524.56 L37.57 526.89 L32
								 523.62 L25.51 526.19 L25.51 550.7 L19.36 554.2 L19.36 565.4 A63.8354 63.4222 -90 0 0 46.38 581.04
								 ZM0 576.14 L12.29 567.5 L40.12 583.61 L40.12 587.81 L27.36 595.28 L0 579.4 L0 576.14 Z"
							class="st30"/>
				</g>
				<g id="group264-211" transform="translate(33.6238,-18.2051)" v:mID="264" v:groupContext="group">
					<title>工作表.264</title>
					<g id="shape265-212" v:mID="265" v:groupContext="shape" transform="translate(2.2474,0)">
						<title>工作表.265</title>
						<path d="M0.77 590.37 L8.65 593.53 a0.914065 0.920019 0 0 1 -0.231888 1.75049 L0.77 592.24 a0.944324 0.950475
									 0 0 1 -1.29896E-14 -1.86719 Z" class="st31"/>
					</g>
					<g id="shape266-214" v:mID="266" v:groupContext="shape" transform="translate(5.69544E-14,-3.26759)">
						<title>工作表.266</title>
						<path d="M0 588.27 L11.36 592.94 L11.36 595.28 L0 590.84 L0 588.27 Z" class="st32"/>
					</g>
					<g id="shape267-216" v:mID="267" v:groupContext="shape" transform="translate(5.69544E-14,-3.26759)">
						<title>工作表.267</title>
						<path d="M0 588.27 L11.36 592.94 L11.36 595.28" class="st14"/>
					</g>
					<g id="shape268-219" v:mID="268" v:groupContext="shape" transform="translate(5.69544E-14,-4.66798)">
						<title>工作表.268</title>
						<path d="M0 590.61 L11.36 595.28" class="st14"/>
					</g>
					<g id="shape269-222" v:mID="269" v:groupContext="shape" transform="translate(-5.79536E-14,-3.26759)">
						<title>工作表.269</title>
						<path d="M0 588.27 L0 590.84 L11.36 595.28" class="st4"/>
					</g>
				</g>
				<g id="shape270-225" v:mID="270" v:groupContext="shape" transform="translate(-255.305,47.6362) rotate(-30)">
					<title>工作表.270</title>
					<ellipse cx="0.777645" cy="594.235" rx="0.777645" ry="1.04023" class="st33"/>
				</g>
				<g id="shape271-229" v:mID="271" v:groupContext="shape" transform="translate(28.2904,-34.5845)">
					<title>工作表.271</title>
					<path d="M0.7 585.08 L0.7 567.31 L0 566.61 A40.2972 40.0363 -90.48 0 0 16.46 576.41 L16.46 595.28 L16.46 594.43
								 A50.9049 50.5754 91.46 0 1 0.7 585.08 Z" class="st34"/>
				</g>
			</g>
			<g id="group272-237" transform="translate(702.205,-56.6929)" v:mID="272" v:groupContext="group">
				<v:userDefs>
					<v:ud v:nameU="visVersion" v:prompt="" v:val="VT0(15):26"/>
				</v:userDefs>
				<title>网页</title>
				<g id="shape273-238" v:mID="273" v:groupContext="shape" transform="translate(2.64694,-6.02106)">
					<title>工作表.273</title>
					<path d="M0 550.62 L0 595.28 L66.28 595.28 L66.28 550.62 L0 550.62 Z" class="st35"/>
				</g>
				<g id="shape274-240" v:mID="274" v:groupContext="shape" transform="translate(3.06859,-6.47106)">
					<title>工作表.274</title>
					<path d="M0 551.52 L0 595.28 L65.43 595.28 L65.43 551.52 L0 551.52 Z" class="st36"/>
				</g>
				<g id="shape275-248" v:mID="275" v:groupContext="shape" transform="translate(2.83199,-38.7487)">
					<title>工作表.275</title>
					<rect x="0" y="588.025" width="66.0369" height="7.2504" class="st37"/>
				</g>
				<g id="shape276-252" v:mID="276" v:groupContext="shape" transform="translate(2.83199,-44.533)">
					<title>工作表.276</title>
					<rect x="0" y="589.239" width="66.1779" height="6.0363" class="st38"/>
				</g>
				<g id="shape277-256" v:mID="277" v:groupContext="shape" transform="translate(3.02764,-41.4577)">
					<title>工作表.277</title>
					<path d="M0 595.28 L42.56 595.28" class="st39"/>
				</g>
				<g id="shape278-259" v:mID="278" v:groupContext="shape" transform="translate(43.236,-41.4577)">
					<title>工作表.278</title>
					<path d="M0 595.28 L7.58 595.28" class="st40"/>
				</g>
				<g id="group279-262" transform="translate(8.50311,-13.5397)" v:mID="279" v:groupContext="group">
					<title>工作表.279</title>
					<g id="shape280-263" v:mID="280" v:groupContext="shape" transform="translate(4.27609,-0.261)">
						<title>工作表.280</title>
						<path d="M1.03 587.66 a0.714825 0.70697 0 0 1 -0.38766 0.4815 A1.79433 1.77461 0 0 1 0.46 589.04 A1.13726
									 1.12476 -180 0 0 -0 589.72 A1.27749 1.26345 -180 0 0 0.19 590.03 A2.00608 1.98404 -180 0 0 0.46
									 590.78 A2.24567 2.22099 0 0 1 1.03 591.59 A1.49746 1.481 -180 0 0 1.8 592.35 a0.710455 0.702648
									 0 0 1 0.70616 0.5634 A19.4985 19.2842 -180 0 0 2.62 594.26 A1.16189 1.14912 -180 0 0 2.89 594.92
									 A8.98691 8.88815 -180 0 0 4.1 595.28 A34.8539 34.4709 0 0 1 5.17 594.71 A2.6561 2.62691 -180
									 0 0 6.43 593.97 a0.494613 0.489177 0 0 1 0.38584 -0.4761 A1.43738 1.42159 -180 0 0 7.95 593.23
									 a0.8566 0.847187 -180 0 0 0.40677 -0.6984 a0.671962 0.664578 0 0 1 0.34489 -0.6282 A2.6979 2.66825
									 -180 0 0 9.34 590.82 a0.983572 0.983572 -180 0 0 -0.61243 -0.1116 A6.70316 6.70316 -180 0 0
									 7.72 590.57 A6.55486 6.55486 -180 0 0 6.22 590.24 A6.65726 6.65726 0 0 1 5.9 589.27 A2.94849
									 2.94849 -180 0 0 4.69 588.97 A11.9502 11.9502 -180 0 0 3.99 588.18 A6.08388 6.08388 0 0 1 3.58
									 588.2 A6.28339 6.28339 0 0 1 1.03 587.66 Z" class="st41"/>
					</g>
					<g id="shape281-265" v:mID="281" v:groupContext="shape" transform="translate(-2.43916E-06,0)">
						<title>工作表.281</title>
						<path d="M20.1 587.63 A2.6846 2.6846 0 0 1 19.9 586.8 L19.96 586.15 L19.63 586.28 a0.346857 0.343046 -180
									 0 0 -0.29484 -0.1809 A3.3844 3.34721 -180 0 0 18.74 586.87 A3.1338 3.09937 0 0 1 18.01 587.25
									 a0.646123 0.639023 0 0 1 -0.43407 -0.5409 a0.820187 0.811174 -180 0 0 -0.57148 -0.4266 A1.13619
									 1.12371 0 0 1 16.96 585.13 A11.7289 11.6 -180 0 0 16.73 583.98 A6.23543 6.16691 0 0 1 17.14
									 582.32 A9.33119 9.22865 -180 0 0 17.1 581.55 a0.321804 0.318267 0 0 1 0.42952 -0.2934 A4.63344
									 4.58252 -180 0 0 18.1 580.34 a0.840102 0.83087 0 0 1 0.43225 0.7002 a0.808678 0.799792 -180
									 0 0 0.56693 0.0198 L19.17 580.65 L19.37 580.49 L19.71 581.15 A10.2697 10.1569 -180 0 0 18.3
									 578.81 A2.49847 2.47101 0 0 1 18.03 579.66 A1.28941 1.27524 0 0 1 17.23 579.32 A1.1075 1.09533
									 -180 0 0 17.1 579.8 A13.9304 13.7773 0 0 1 17.28 580.43 a0.579373 0.573006 0 0 1 -0.22477 0.6075
									 a0.505535 0.49998 0 0 1 -0.63882 -0.4266 A5.17041 5.1136 0 0 1 16.12 579.88 a0.761116 0.752752
									 0 0 1 0.52598 -0.1791 A1.43718 1.42139 -180 0 0 16.05 578.98 L16.34 578.46 A1.38446 1.36925
									 0 0 1 16.14 577.79 a0.390801 0.386506 -180 0 0 3.19744E-14 -0.5436 A7.96462 7.8771 -180 0 0
									 15.27 576.67 A5.21976 5.1624 0 0 1 15.87 577.32 a0.270933 0.267956 0 0 1 -0.16107 0.3618 A6.40831
									 6.33789 0 0 1 15.6 577.3 a0.277703 0.274651 -180 0 0 -0.41041 -0.0459 A31.9428 31.5918 0 0 1
									 14.68 577 a0.406773 0.402303 0 0 1 -0.09373 -0.405 A3.26003 3.22421 -180 0 0 13.86 576.08 a0.31601
									 0.312538 0 0 1 -0.08918 -0.4275 A2.33003 2.30443 0 0 1 14.28 575.77 A10.2482 10.1356 -180 0
									 0 10.27 574.97 A13.2791 13.1332 -180 0 0 9.88 574.99 A9.15107 9.05051 0 0 1 11.82 575.13 a0.846628
									 0.837324 0 0 1 -0.52325 0.2178 L10.89 575.42 L11.3 575.57 A2.52411 2.49637 0 0 1 12.13 576.19
									 a0.281813 0.278716 0 0 1 -0.10465 0.4923 a0.442063 0.437205 0 0 1 -0.17654 0.2754 A6.25804 6.18927
									 0 0 1 14.13 581.74 A6.26576 6.19691 0 0 1 8.26 587.92 A12.0442 11.9118 0 0 1 8.97 588.71 A2.92161
									 2.8895 0 0 1 10.18 589.01 A6.66697 6.59371 -180 0 0 10.49 589.97 A6.49411 6.42275 0 0 1 12 590.31
									 A6.64871 6.57564 0 0 1 13 590.45 a0.975438 0.964719 0 0 1 0.61243 0.1116 A2.69173 2.66215 0
									 0 1 12.98 591.64 a0.673315 0.665916 -180 0 0 -0.34489 0.6282 a0.8566 0.847187 0 0 1 -0.40677
									 0.6984 A1.44448 1.42861 0 0 1 11.09 593.24 a0.495635 0.490188 -180 0 0 -0.38584 0.4761 A2.6561
									 2.62691 0 0 1 9.45 594.45 A34.8539 34.4709 -180 0 0 8.38 595.01 A9.12338 9.02313 0 0 1 7.17
									 594.66 A1.16423 1.15143 0 0 1 6.9 594 A19.4985 19.2842 0 0 1 6.78 592.65 a0.711135 0.70332 -180
									 0 0 -0.70616 -0.5634 A1.49705 1.4806 0 0 1 5.3 591.33 A2.24567 2.22099 -180 0 0 4.73 590.52
									 A2.00608 1.98404 0 0 1 4.46 589.77 A1.25705 1.24324 0 0 1 4.28 589.46 A1.13726 1.12476 0 0 1
									 4.73 588.78 A1.79433 1.77461 -180 0 0 4.92 587.88 a0.714825 0.70697 -180 0 0 0.38766 -0.4815
									 A6.21777 6.14944 0 0 1 3.94 586.58 A36.5505 36.1488 -180 0 0 3.94 587.05 L4.26 587.32 L4.12
									 587.59 a0.921995 0.911864 0 0 1 -0.66066 -0.6768 A1.42965 1.41394 -180 0 0 3.18 586.08 a0.393108
									 0.388789 0 0 1 -0.36218 -0.1341 A2.61863 2.58985 -180 0 0 2.41 585.22 L1.98 585.13 A3.68411
									 3.64363 0 0 1 1.52 584.03 A9.27981 9.17783 0 0 1 1.52 580.67 A7.59866 7.51516 0 0 1 2.02 579.49
									 A6.25572 6.18697 0 0 1 2.55 578.44 A10.1992 10.0872 -180 0 0 0 585.12 A10.2111 10.2111 -180
									 0 0 10.27 595.28 A10.2306 10.2306 -180 0 0 20.36 586.94 A1.39622 1.39622 0 0 1 20.1 587.63 Z"
								class="st42"/>
					</g>
					<g id="shape282-269" v:mID="282" v:groupContext="shape" transform="translate(2.01565,-15.7842)">
						<title>工作表.282</title>
						<path d="M2.29 592.68 A9.84596 9.84596 0 0 1 4.36 591.57 a0.363824 0.363824 -180 0 0 0.13832 0.4752 A1.25653
									 1.25653 0 0 1 5.11 591.57 A2.14638 2.14638 -180 0 0 5.58 591.66 A1.60742 1.60742 0 0 1 5.63
									 591.33 A6.42225 6.42225 -180 0 0 4.55 591.46 A10.2906 10.2906 -180 0 0 0.53 594.23 A6.22807
									 6.22807 -180 0 0 0 595.28 A7.02406 7.02406 0 0 1 2.29 592.68 Z" class="st43"/>
					</g>
					<g id="shape283-273" v:mID="283" v:groupContext="shape" transform="translate(2.36142,-7.362)">
						<title>工作表.283</title>
						<path d="M9.09 585.27 a0.335627 0.331938 0 0 1 -0.39221 -0.0648 a0.837755 0.828549 -180 0 0 -0.35581 -0.0495
									 A3.93485 3.89161 0 0 1 7.88 584.43 a0.365453 0.361437 0 0 1 0.19747 -0.4635 a0.207004 0.20473
									 0 0 1 -0.17381 -0.2844 a0.909082 0.899093 -180 0 0 -0.91273 -0.4932 a0.288338 0.28517 -180 0
									 0 -0.35399 0.1827 A11.4284 11.3028 0 0 1 6.33 583.38 A1.29726 1.28301 0 0 1 7.33 583.76 A1.17854
									 1.16559 0 0 1 6.47 584.91 a0.488937 0.483564 0 0 1 -0.50323 -0.3834 A1.06589 1.05418 -180 0
									 0 5.36 584.48 a0.676942 0.669503 0 0 1 -0.65975 -0.0207 a0.846288 0.836989 -180 0 0 -0.91364
									 0.6507 A1.79121 1.77152 0 0 1 4.35 585.74 a0.396971 0.392608 -180 0 0 0.02275 0.5202 A1.7679
									 1.74847 -180 0 0 5.08 585.36 a0.62707 0.620179 0 0 1 0.5915 -0.6084 A2.45699 2.42999 0 0 1 5.92
									 585.25 a0.391757 0.387452 0 0 1 0.59332 -0.0243 A23.3829 23.1259 -180 0 0 7.08 586.03 A4.99768
									 4.94276 -180 0 0 7.27 586.91 a0.494041 0.488612 -180 0 0 0.38584 0.1548 a0.822059 0.813026 0
									 0 1 -0.61334 0.2034 a0.916385 0.906314 -180 0 0 -0.34398 -0.5634 A2.95017 2.91775 0 0 1 5.81
									 586.73 A1.04197 1.03052 -180 0 0 6.03 587.43 a0.251018 0.24826 0 0 1 -0.13559 0.4761 a0.648439
									 0.641313 0 0 1 -0.43498 -0.225 A2.23739 2.2128 -180 0 0 4.92 588.17 A1.20497 1.19173 0 0 1 4.35
									 588.31 L3.85 588.8 A1.67135 1.65299 0 0 1 3.14 589.7 a0.926701 0.916517 -180 0 0 -0.54964 0.7209
									 A1.46195 1.44588 0 0 1 2.37 591.39 a0.60773 0.601051 0 0 1 -0.02093 -0.5841 L2.12 590.24 L1.42
									 589.93 L1.3 590.13 L0.6 589.84 a0.265604 0.262685 -180 0 0 -0.18564 0.2916 A1.35142 1.33657
									 0 0 1 0.05 590.85 A10.9659 10.8454 -180 0 0 0 591.89 A2.31258 2.28717 -180 0 0 0.48 592.22 L0.73
									 591.91 L1.21 591.93 A1.7543 1.73503 -180 0 0 0.87 592.85 A1.40637 1.39091 0 0 1 1.6 593.44 A7.44531
									 7.3635 -180 0 0 1.58 593.94 A6.21777 6.14944 -180 0 0 2.94 594.76 A2.3699 2.34386 -180 0 0 2.99
									 594.61 L3.55 594.63 a0.284457 0.281332 -180 0 0 0.20475 0.3618 A1.29469 1.28046 -180 0 0 4.15
									 594.68 A3.03337 3.00004 0 0 1 5.06 595.22 a0.58329 0.57688 0 0 1 0.29484 -0.3132 a0.891532 0.881735
									 0 0 1 0.54782 0.3726 A6.26509 6.19625 -180 0 0 11.76 589.1 A6.25804 6.18927 -180 0 0 9.49 584.32
									 A1.82274 1.82274 0 0 1 9.15 584.55 A1.19286 1.19286 0 0 1 9.09 585.27 Z" class="st43"/>
					</g>
					<g id="shape284-276" v:mID="284" v:groupContext="shape" transform="translate(1.36512,-7.6869)">
						<title>工作表.284</title>
						<path d="M6.25 583.62 a0.077801 0.0769461 0 0 1 -0.01729 -0.0531 A2.0626 2.03994 0 0 1 5.76 583.47 A1.2677
									 1.25377 -180 0 0 5.14 583.95 a0.370233 0.366164 0 0 1 -0.13832 -0.4752 A9.8612 9.75284 -180
									 0 0 2.94 584.58 A7.2488 7.16915 -180 0 0 0.16 588.36 A9.28163 9.17963 -180 0 0 0.16 591.72 A3.60962
									 3.60962 -180 0 0 0.62 592.82 L1.05 592.91 A2.54727 2.54727 0 0 1 1.46 593.63 a0.396273 0.396273
									 -180 0 0 0.36218 0.1341 A1.40455 1.40455 0 0 1 2.09 594.6 a0.917607 0.917607 -180 0 0 0.66066
									 0.6768 L2.89 595.01 L2.57 594.74 A17.8819 17.8819 0 0 1 2.6 593.76 A1.39886 1.39886 -180 0 0
									 1.87 593.18 A1.72342 1.72342 0 0 1 2.21 592.26 L1.73 592.24 L1.48 592.55 A2.31216 2.31216 0
									 0 1 1 592.21 A10.44 10.44 0 0 1 1.05 591.18 A1.32542 1.32542 -180 0 0 1.41 590.46 a0.263416
									 0.263416 0 0 1 0.18564 -0.2916 L2.3 590.46 L2.42 590.26 L3.12 590.57 L3.35 591.13 a0.59771 0.59771
									 -180 0 0 0.02093 0.5841 A1.43351 1.43351 -180 0 0 3.59 590.75 a0.917039 0.917039 0 0 1 0.54964
									 -0.7209 A1.64999 1.64999 -180 0 0 4.85 589.13 L5.35 588.63 A1.22683 1.22683 -180 0 0 5.92 588.5
									 A2.22862 2.22862 0 0 1 6.46 588 a0.649596 0.649596 -180 0 0 0.43498 0.225 a0.248278 0.248278
									 -180 0 0 0.13559 -0.4761 A1.02256 1.02256 0 0 1 6.81 587.06 A3.01464 3.01464 -180 0 0 7.69 587.04
									 a0.905193 0.905193 0 0 1 0.34398 0.5634 a0.827467 0.827467 -180 0 0 0.61334 -0.2034 a0.497405
									 0.497405 0 0 1 -0.38584 -0.1548 A4.89501 4.89501 0 0 1 8.08 586.36 A24.0682 24.0682 0 0 1 7.51
									 585.55 a0.394509 0.394509 -180 0 0 -0.59332 0.0243 A2.49127 2.49127 -180 0 0 6.67 585.08 a0.62327
									 0.62327 -180 0 0 -0.5915 0.6084 A1.75193 1.75193 0 0 1 5.37 586.59 a0.389554 0.389554 0 0 1
									 -0.02275 -0.5202 A1.77696 1.77696 -180 0 0 4.78 585.44 a0.846513 0.846513 0 0 1 0.91364 -0.6507
									 a0.683393 0.683393 -180 0 0 0.65975 0.0207 A1.07699 1.07699 0 0 1 6.97 584.85 a0.486919 0.486919
									 -180 0 0 0.50323 0.3834 A1.16715 1.16715 -180 0 0 8.33 584.09 A1.30055 1.30055 -180 0 0 7.33
									 583.71 A3.69753 3.69753 0 0 1 6.25 583.62 Z" class="st44"/>
					</g>
					<g id="shape285-280" v:mID="285" v:groupContext="shape" transform="translate(4.27518,-0.2592)">
						<title>工作表.285</title>
						<path d="M8.72 590.71 A6.63356 6.56066 -180 0 0 7.72 590.57 A6.49411 6.42275 -180 0 0 6.22 590.23 A6.78344
									 6.7089 0 0 1 5.9 589.27 A2.92161 2.8895 -180 0 0 4.69 588.97 A4.15963 4.11392 -180 0 0 3.44
									 587.8 a0.58329 0.57688 -180 0 0 -0.29484 0.3132 A3.05237 3.01883 -180 0 0 2.23 587.58 A1.30855
									 1.29417 0 0 1 1.85 587.89 a0.285443 0.282307 0 0 1 -0.20475 -0.3618 L1.07 587.51 a0.880582 0.870906
									 0 0 1 -0.43043 0.6291 A1.79433 1.77461 0 0 1 0.46 589.04 A1.13726 1.12476 -180 0 0 -0 589.72
									 A1.27749 1.26345 -180 0 0 0.19 590.03 A2.00608 1.98404 -180 0 0 0.46 590.78 A2.24567 2.22099
									 0 0 1 1.03 591.59 A1.49746 1.481 -180 0 0 1.8 592.35 a0.710455 0.702648 0 0 1 0.70616 0.5634
									 A19.4985 19.2842 -180 0 0 2.62 594.26 A1.16189 1.14912 -180 0 0 2.89 594.92 A8.98691 8.88815
									 -180 0 0 4.1 595.28 A34.8539 34.4709 0 0 1 5.17 594.71 A2.6561 2.62691 -180 0 0 6.43 593.97
									 a0.494613 0.489177 0 0 1 0.38584 -0.4761 A1.43738 1.42159 -180 0 0 7.95 593.23 a0.8566 0.847187
									 -180 0 0 0.40677 -0.6984 a0.671962 0.664578 0 0 1 0.34489 -0.6282 A2.6979 2.66825 -180 0 0 9.34
									 590.82 a0.968714 0.968714 -180 0 0 -0.61152 -0.1134 Z" class="st45"/>
					</g>
					<g id="shape286-284" v:mID="286" v:groupContext="shape" transform="translate(16.7331,-7.6401)">
						<title>工作表.286</title>
						<path d="M3.76 591.98 A10.7554 10.6372 -180 0 0 3.64 591.02 L3.07 589.01 A9.45428 9.35038 -180 0 0 2.98 588.79
									 L2.64 588.14 L2.44 588.29 L2.37 588.7 a0.808678 0.799792 0 0 1 -0.56693 -0.0198 a0.840102 0.83087
									 -180 0 0 -0.43225 -0.7002 A4.54932 4.54932 0 0 1 0.79 588.9 a0.321176 0.321176 -180 0 0 -0.42952
									 0.2934 A9.10811 9.10811 0 0 1 0.4 589.96 A6.10192 6.10192 -180 0 0 0 591.63 A11.4858 11.4858
									 0 0 1 0.22 592.77 A1.11317 1.11317 -180 0 0 0.27 593.92 a0.818315 0.818315 0 0 1 0.57148 0.4266
									 a0.641761 0.641761 -180 0 0 0.43407 0.5409 A3.14534 3.14534 -180 0 0 2 594.51 A3.39788 3.39788
									 0 0 1 2.6 593.74 a0.346485 0.346485 0 0 1 0.29484 0.1809 L3.23 593.79 L3.16 594.44 A2.6846 2.6846
									 -180 0 0 3.37 595.28 A1.39622 1.39622 -180 0 0 3.62 594.58 A9.40296 9.40296 -180 0 0 3.76 593.54
									 L3.76 591.98 L3.76 591.98 Z" class="st46"/>
					</g>
					<g id="shape287-288" v:mID="287" v:groupContext="shape" transform="translate(13.7243,-14.2215)">
						<title>工作表.287</title>
						<path d="M0.14 590.3 A3.3129 3.2765 0 0 1 0.87 590.82 a0.402044 0.397626 -180 0 0 0.09373 0.405 A25.1742
									 24.8975 -180 0 0 1.46 591.47 a0.276745 0.273704 0 0 1 0.41041 0.0477 A6.67817 6.60479 -180 0
									 0 1.98 591.9 a0.270933 0.267956 -180 0 0 0.16107 -0.3618 A5.21976 5.1624 -180 0 0 1.55 590.89
									 A7.96462 7.8771 0 0 1 2.42 591.47 a0.390686 0.386393 0 0 1 -1.77636E-15 0.5436 A1.38446 1.36925
									 -180 0 0 2.62 592.68 L2.32 593.21 A1.43264 1.41689 0 0 1 2.92 593.93 a0.763594 0.755203 -180
									 0 0 -0.52598 0.1791 A5.32867 5.27012 -180 0 0 2.69 594.83 a0.5064 0.500835 -180 0 0 0.63882
									 0.4266 a0.579035 0.572672 -180 0 0 0.22477 -0.6075 A13.9304 13.7773 -180 0 0 3.37 594.02 A1.1075
									 1.09533 0 0 1 3.51 593.55 A1.28941 1.27524 -180 0 0 4.31 593.88 A2.50433 2.47681 -180 0 0 4.58
									 593.04 a0.462741 0.457656 -180 0 0 -0.02548 -0.0306 A107.23 106.052 -180 0 0 2.8 591.31 A10.3321
									 10.2186 -180 0 0 0.56 590 A2.31775 2.29228 -180 0 0 0.05 589.88 a0.315496 0.312029 -180 0 0
									 0.08827 0.4275 Z" class="st44"/>
					</g>
					<g id="shape288-291" v:mID="288" v:groupContext="shape" transform="translate(7.60032,-17.3285)">
						<title>工作表.288</title>
						<path d="M0 593.21 A65.9327 65.2082 0 0 1 1.09 593.35 A11.4284 11.3028 -180 0 0 1.4 593.34 a0.288338 0.28517
									 0 0 1 0.35399 -0.1827 a0.909082 0.899093 0 0 1 0.91273 0.4932 a0.207694 0.205412 -180 0 0 0.17381
									 0.2844 L2.86 593.92 a0.0842657 0.0833397 0 0 1 -0.02366 0.0153 a0.366228 0.362204 -180 0 0 -0.19747
									 0.4635 A3.93485 3.89161 -180 0 0 3.11 595.13 a0.822708 0.813667 0 0 1 0.35581 0.0495 a0.334242
									 0.330569 -180 0 0 0.39221 0.0648 A1.21093 1.19762 -180 0 0 3.91 594.52 a0.934875 0.924601 -180
									 0 0 0.51961 -0.504 a0.281567 0.278472 -180 0 0 0.10465 -0.4923 A2.52927 2.50147 -180 0 0 3.7
									 592.9 L3.29 592.75 L3.7 592.68 a0.851811 0.84245 -180 0 0 0.52325 -0.2178 A9.15107 9.05051 -180
									 0 0 2.28 592.32 A10.8728 10.7533 -180 0 0 1.76 592.34 L0.23 592.6 A4.8619 4.80847 -180 0 0 0.02
									 592.65 A1.38585 1.37062 0 0 1 -0 593.21 Z" class="st47"/>
					</g>
				</g>
				<g id="shape289-298" v:mID="289" v:groupContext="shape" transform="translate(8.09361,-13.1239)">
					<title>工作表.289</title>
					<path d="M10.68 574.16 A10.6458 10.5288 -180 0 0 3.13 577.25 A10.6446 10.5276 -180 0 0 0 584.72 A10.6429 10.526
								 -180 0 0 3.13 592.18 A10.6466 10.5296 -180 0 0 10.68 595.28 A10.6466 10.5296 -180 0 0 18.23 592.18
								 A10.6429 10.526 -180 0 0 21.36 584.72 A10.6446 10.5276 -180 0 0 18.23 577.25 A10.7054 10.7054 -180
								 0 0 10.68 574.16 ZM10.68 594.83 A10.193 10.081 0 0 1 3.45 591.86 A10.1893 10.0773 0 0 1 0.46 584.72
								 A10.1908 10.0788 0 0 1 3.45 577.57 A10.1924 10.0804 0 0 1 10.68 574.61 A10.1924 10.0804 0 0 1 17.9
								 577.57 A10.1908 10.0788 0 0 1 20.9 584.72 A10.1893 10.0773 0 0 1 17.9 591.86 A10.193 10.081 0 0
								 1 10.68 594.83 Z" class="st48"/>
				</g>
				<g id="shape290-300" v:mID="290" v:groupContext="shape" transform="translate(2.64362,-6.02106)">
					<title>工作表.290</title>
					<path d="M0 550.62 L0 595.28 L66.28 595.28 L66.28 550.62 L0 550.62 Z" class="st49"/>
				</g>
				<g id="shape291-302" v:mID="291" v:groupContext="shape" transform="translate(35.45,-17.0623)">
					<title>工作表.291</title>
					<path d="M0.46 594.38 L28.33 594.38 a0.454584 0.449588 0 0 1 0.455 0.45 a0.45575 0.450742 0 0 1 -0.455 0.45 L0.46
								 595.28 a0.45575 0.450742 0 0 1 -0.455 -0.45 a0.454584 0.449588 0 0 1 0.455 -0.45 ZM0.46 588.49 L28.33
								 588.49 a0.45575 0.450742 0 0 1 0.455 0.45 a0.454584 0.449588 0 0 1 -0.455 0.45 L0.46 589.39 a0.454584
								 0.449588 0 0 1 -0.455 -0.45 a0.45575 0.450742 0 0 1 0.455 -0.45 ZM0.46 582.6 L28.33 582.6 a0.454584
								 0.449588 0 0 1 0.455 0.45 a0.453265 0.453265 0 0 1 -0.455 0.45 L0.46 583.5 a0.453265 0.453265 0
								 0 1 -0.455 -0.45 a0.452109 0.452109 0 0 1 0.455 -0.45 Z" class="st48"/>
				</g>
			</g>
			<g id="group292-304" transform="translate(207.795,-49.2126)" v:mID="292" v:groupContext="group">
				<v:custProps>
					<v:cp v:nameU="ShapeClass" v:lbl="ShapeClass" v:type="0" v:invis="true" v:ask="false" v:langID="2052"
							v:val="VT4(设备)"/>
					<v:cp v:nameU="ShapeType" v:lbl="ShapeType" v:type="0" v:invis="true" v:ask="false" v:langID="2052"
							v:val="VT4(设备)"/>
					<v:cp v:nameU="SubShapeType" v:lbl="SubShapeType" v:type="0" v:invis="true" v:ask="false" v:langID="2052"
							v:val="VT4(防火墙)"/>
					<v:cp v:nameU="Manufacturer" v:lbl="制造商" v:type="0" v:sortKey="Equipment" v:invis="false" v:ask="false"
							v:langID="2052"/>
					<v:cp v:nameU="ProductNumber" v:lbl="产品编号" v:type="0" v:sortKey="Equipment" v:invis="false" v:ask="false"
							v:langID="2052"/>
					<v:cp v:nameU="PartNumber" v:lbl="部件号" v:type="0" v:sortKey="Equipment" v:invis="false" v:ask="false"
							v:langID="2052"/>
					<v:cp v:nameU="ProductDescription" v:lbl="产品说明" v:type="0" v:sortKey="Equipment" v:invis="false" v:ask="false"
							v:langID="2052"/>
					<v:cp v:nameU="AssetNumber" v:lbl="资产号" v:type="0" v:sortKey="Asset" v:invis="false" v:ask="false"
							v:langID="2052"/>
					<v:cp v:nameU="SerialNumber" v:lbl="序列号" v:type="0" v:sortKey="Asset" v:invis="false" v:ask="false"
							v:langID="2052"/>
					<v:cp v:nameU="Location" v:lbl="位置" v:type="0" v:sortKey="Asset" v:invis="false" v:ask="false" v:langID="2052"/>
					<v:cp v:nameU="Building" v:lbl="建筑物" v:type="0" v:sortKey="Asset" v:invis="false" v:ask="false" v:langID="2052"/>
					<v:cp v:nameU="Room" v:lbl="房间" v:type="0" v:sortKey="Asset" v:invis="false" v:ask="false" v:langID="2052"/>
				</v:custProps>
				<v:userDefs>
					<v:ud v:nameU="HasText" v:val="VT0(0):5"/>
					<v:ud v:nameU="ShapeClass" v:val="VT0(5):26"/>
					<v:ud v:nameU="ShapeType" v:val="VT0(8):26"/>
					<v:ud v:nameU="SubShapeType" v:val="VT0(27):26"/>
					<v:ud v:nameU="SolSH" v:val="VT15({BF0433D9-CD73-4EB5-8390-8653BE590246}):41"/>
					<v:ud v:nameU="visLegendShape" v:val="VT0(2):26"/>
					<v:ud v:nameU="visVersion" v:prompt="" v:val="VT0(15):26"/>
				</v:userDefs>
				<title>防火墙</title>
				<g id="shape293-305" v:mID="293" v:groupContext="shape">
					<title>工作表.293</title>
					<path d="M31.53 595.28 L42.99 588.68 L42.99 541.82 L11.46 523.62 L0 530.21 L0 576.93 L31.53 595.28 Z"
							class="st50"/>
				</g>
				<g id="shape294-311" v:mID="294" v:groupContext="shape" transform="translate(31.5276,0)">
					<title>工作表.294</title>
					<path d="M0 548.56 L0 595.28 L11.46 588.68 L11.46 541.82 L0 548.56 Z" class="st51"/>
				</g>
				<g id="shape295-318" v:mID="295" v:groupContext="shape" transform="translate(0,-46.7181)">
					<title>工作表.295</title>
					<path d="M0 576.93 L31.53 595.28 L42.99 588.54 L11.46 570.34 L0 576.93 Z" class="st52"/>
				</g>
				<g id="shape296-323" v:mID="296" v:groupContext="shape">
					<title>工作表.296</title>
					<path d="M0 576.93 L31.53 595.28 L31.53 548.56 L0 530.21 L0 576.93 Z" class="st53"/>
				</g>
				<g id="shape297-329" v:mID="297" v:groupContext="shape" transform="translate(2.86614,-3.43937)">
					<title>工作表.297</title>
					<path d="M0 535.37 L28.66 552 L37.26 547.12" class="st54"/>
					<path d="M28.66 552 L28.66 595.28" class="st54"/>
					<path d="M0 543.11 L28.66 559.74" class="st54"/>
					<path d="M0 550.85 L28.66 567.47" class="st54"/>
					<path d="M0 558.59 L28.66 575.21" class="st54"/>
					<path d="M0 566.61 L28.66 583.24" class="st54"/>
					<path d="M0 574.35 L28.66 590.98" class="st54"/>
					<path d="M20.92 578.65 L20.92 586.39" class="st54"/>
					<path d="M5.16 569.77 L5.16 577.51" class="st54"/>
					<path d="M12.9 566.04 L12.9 574.07" class="st54"/>
					<path d="M20.92 563.17 L20.92 570.63" class="st54"/>
					<path d="M5.16 554 L5.16 561.46" class="st54"/>
					<path d="M12.9 550.56 L12.9 558.3" class="st54"/>
					<path d="M5.16 538.53 L5.16 545.98" class="st54"/>
				</g>
				<g id="shape298-346" v:mID="298" v:groupContext="shape">
					<title>工作表.298</title>
					<path d="M0 576.93 L31.53 595.28 L42.99 588.68 L42.99 541.82 L11.46 523.62 L0 530.21 L0 576.93" class="st55"/>
				</g>
			</g>
			<g id="shape299-349" v:mID="299" v:groupContext="shape" transform="translate(599.024,-85.0394)">
				<title>普通双箭头</title>
				<desc>TLS</desc>
				<v:userDefs>
					<v:ud v:nameU="visVersion" v:val="VT0(15):26"/>
					<v:ud v:nameU="ArrowType" v:prompt="" v:val="VT0(3):26"/>
				</v:userDefs>
				<v:textBlock v:margins="rect(4,4,4,4)" v:tabSpace="42.5197"/>
				<v:textRect cx="51.5906" cy="595.276" width="103.19" height="0"/>
				<path d="M0 595.28 L11.34 583.94 L11.34 589.61 L91.84 589.61 L91.84 583.94 L103.18 595.28 L91.84 606.61 L91.84 600.94
							 L11.34 600.94 L11.34 606.61 L0 595.28 Z" class="st56"/>
				<text x="43.25" y="598.88" class="st57" v:langID="2052"><v:paragraph v:horizAlign="1"/><v:tabList/>TLS</text>			</g>
			<g id="shape300-352" v:mID="300" v:groupContext="shape" transform="translate(415.591,-85.0394)">
				<title>普通双箭头.96</title>
				<desc>WebSocket</desc>
				<v:userDefs>
					<v:ud v:nameU="visVersion" v:val="VT0(15):26"/>
					<v:ud v:nameU="ArrowType" v:prompt="" v:val="VT0(3):26"/>
				</v:userDefs>
				<v:textBlock v:margins="rect(4,4,4,4)" v:tabSpace="42.5197"/>
				<v:textRect cx="65.9213" cy="595.276" width="131.85" height="0"/>
				<path d="M0 595.28 L11.34 583.94 L11.34 589.61 L120.5 589.61 L120.5 583.94 L131.84 595.28 L120.5 606.61 L120.5 600.94
							 L11.34 600.94 L11.34 606.61 L0 595.28 Z" class="st56"/>
				<text x="37.69" y="598.88" class="st57" v:langID="1033"><v:paragraph v:horizAlign="1"/><v:tabList/>WebSocket</text>			</g>
			<g id="shape301-355" v:mID="301" v:groupContext="shape" transform="translate(7.16535,0)">
				<title>工作表.301</title>
				<desc>电脑</desc>
				<v:textBlock v:margins="rect(4,4,4,4)" v:tabSpace="42.5197"/>
				<v:textRect cx="28.6614" cy="581.102" width="57.33" height="28.3465"/>
				<rect x="0" y="566.929" width="57.3228" height="28.3465" class="st58"/>
				<text x="4.66" y="588.39" class="st59" v:langID="2052"><v:paragraph v:horizAlign="1"/><v:tabList/>电脑</text>			</g>
			<g id="shape302-358" v:mID="302" v:groupContext="shape" transform="translate(200.63,0)">
				<title>工作表.302</title>
				<desc>GFW</desc>
				<v:textBlock v:margins="rect(4,4,4,4)" v:tabSpace="42.5197"/>
				<v:textRect cx="28.6614" cy="581.102" width="57.33" height="28.3465"/>
				<rect x="0" y="566.929" width="57.3228" height="28.3465" class="st60"/>
				<text x="4.63" y="588.3" class="st61" v:langID="2052"><v:paragraph v:horizAlign="1"/><v:tabList/>GFW</text>			</g>
			<g id="shape303-361" v:mID="303" v:groupContext="shape" transform="translate(318.858,0)">
				<title>工作表.303</title>
				<desc>Web 服务器</desc>
				<v:textBlock v:margins="rect(4,4,4,4)" v:tabSpace="42.5197"/>
				<v:textRect cx="70.937" cy="581.102" width="141.88" height="28.3465"/>
				<rect x="0" y="566.929" width="141.874" height="28.3465" class="st58"/>
				<text x="8.87" y="588.39" class="st61" v:langID="2052"><v:paragraph v:horizAlign="1"/><v:tabList/>Web <tspan
							class="st62">服务器</tspan> </text>			</g>
			<g id="shape304-365" v:mID="304" v:groupContext="shape" transform="translate(502.291,0)">
				<title>工作表.304</title>
				<desc>代理服务器</desc>
				<v:textBlock v:margins="rect(4,4,4,4)" v:tabSpace="42.5197"/>
				<v:textRect cx="70.937" cy="581.102" width="141.88" height="28.3465"/>
				<rect x="0" y="566.929" width="141.874" height="28.3465" class="st58"/>
				<text x="10.94" y="588.39" class="st59" v:langID="2052"><v:paragraph v:horizAlign="1"/><v:tabList/>代理服务器 </text>			</g>
			<g id="shape305-368" v:mID="305" v:groupContext="shape" transform="translate(709.37,0)">
				<title>工作表.305</title>
				<desc>网站</desc>
				<v:textBlock v:margins="rect(4,4,4,4)" v:tabSpace="42.5197"/>
				<v:textRect cx="28.6614" cy="581.102" width="57.33" height="28.3465"/>
				<rect x="0" y="566.929" width="57.3228" height="28.3465" class="st58"/>
				<text x="4.66" y="588.39" class="st59" v:langID="2052"><v:paragraph v:horizAlign="1"/><v:tabList/>网站</text>			</g>
			<g id="shape306-371" v:mID="306" v:groupContext="shape" transform="translate(71.6535,-85.0394)">
				<title>普通双箭头.119</title>
				<desc>HTTPS</desc>
				<v:userDefs>
					<v:ud v:nameU="visVersion" v:val="VT0(15):26"/>
					<v:ud v:nameU="ArrowType" v:prompt="" v:val="VT0(3):26"/>
				</v:userDefs>
				<v:textBlock v:margins="rect(4,4,4,4)" v:tabSpace="42.5197"/>
				<v:textRect cx="68.0709" cy="595.276" width="136.15" height="0"/>
				<path d="M0 595.28 L11.34 583.94 L11.34 589.61 L124.8 589.61 L124.8 583.94 L136.14 595.28 L124.8 606.61 L124.8 600.94
							 L11.34 600.94 L11.34 606.61 L0 595.28 Z" class="st56"/>
				<text x="52.31" y="598.88" class="st57" v:langID="2052"><v:paragraph v:horizAlign="1"/><v:tabList/>HTTPS</text>			</g>
			<g id="shape307-374" v:mID="307" v:groupContext="shape" transform="translate(250.787,-85.0394)">
				<title>普通双箭头.120</title>
				<desc>WebSocket + TLS</desc>
				<v:userDefs>
					<v:ud v:nameU="visVersion" v:val="VT0(15):26"/>
					<v:ud v:nameU="ArrowType" v:prompt="" v:val="VT0(3):26"/>
				</v:userDefs>
				<v:textBlock v:margins="rect(4,4,4,4)" v:tabSpace="42.5197"/>
				<v:textRect cx="56.6063" cy="595.276" width="113.22" height="0"/>
				<path d="M0 595.28 L11.34 583.94 L11.34 589.61 L101.87 589.61 L101.87 583.94 L113.21 595.28 L101.87 606.61 L101.87
							 600.94 L11.34 600.94 L11.34 606.61 L0 595.28 Z" class="st56"/>
				<text x="14.33" y="598.88" class="st57" v:langID="1033"><v:paragraph v:horizAlign="1"/><v:tabList/>WebSocket<tspan
							class="st63" v:langID="2052"> </tspan><tspan class="st63" v:langID="2052">+ TLS</tspan></text>			</g>
		</g>
	</g>
</svg>
